<ttFont>
<head>
        <!-- Most of this table will be recalculated by the compiler -->
        <tableVersion value="1.0"/>
        <fontRevision value="1.002"/>
        <checkSumAdjustment value="0x8282817"/>
        <magicNumber value="0x5f0f3cf5"/>
        <flags value="00000000 00000011"/>
        <unitsPerEm value="1000"/>
        <created value="Thu Jan 14 16:35:19 2016"/>
        <modified value="Thu Jan 14 21:35:19 2016"/>
        <xMin value="-75"/>
        <yMin value="-364"/>
        <xMax value="2119"/>
        <yMax value="1137"/>
        <macStyle value="00000000 00000010"/>
        <lowestRecPPEM value="3"/>
        <fontDirectionHint value="2"/>
        <indexToLocFormat value="0"/>
        <glyphDataFormat value="0"/>
    </head>
                    <CharString index="0">
                        rmoveto
            -12 55 -24 callsubr
            rlinecurve
            -82 callgsubr
            -164 145 -99 282 143 vhcurveto
            -149 366 -79 callsubr
          
                    </CharString>
                    <CharString index="1">
                        -100 callgsubr
            hintmask 01011110
            -75 callgsubr
            hintmask 01101110
            -93 callsubr
            hintmask 01011110
            -36 callsubr
          
                    </CharString>
                    <CharString index="2">
                        rmoveto
            -43 callgsubr
            rlineto
            -177 -35 74 -73 131 hhcurveto
            123 85 64 157 31 hvcurveto
            80 413 rlineto
            59 callgsubr
            -80 -415 rlineto
            -59 callgsubr
            endchar
          
                    </CharString>
                    <CharString index="3">
                        -93 callgsubr
            -71 callgsubr
            -45 callsubr
          
                    </CharString>
                    <CharString index="4">
                        rmoveto
            hintmask 00111100
            -74 callgsubr
            hintmask 01011100
            -92 callsubr
            hintmask 10011100
            -12 callsubr
            hintmask 00111100
            -87 callgsubr
          
                    </CharString>
                    <CharString index="5">
                        rmoveto
            43 136 -123 -3 -33 -134 rlineto
            -106 -1 rmoveto
            42 135 -123 -1 -33 -135 rlineto
            return
          
                    </CharString>
                    <CharString index="6">
                        -97 callgsubr
            6 0 6 1 6 hvcurveto
            -33 callsubr
          
                    </CharString>
                    <CharString index="7">
                        -36 callgsubr
            hintmask 10101110
            -77 callsubr
            hintmask 10011110
            -88 callsubr
            hintmask 01011110
            -28 callgsubr
          
                    </CharString>
                    <CharString index="8">
                        rmoveto
            -84 callsubr
            -46 callsubr
            -14 -74 rlineto
            77 hlineto
            15 74 rlineto
            return
          
                    </CharString>
                    <CharString index="9">
                        rmoveto
            44 -19 72 56 45 79 9 78 55 callgsubr
            -2 8 -59 -8 -69 -35 -64 rlinecurve
            endchar
          
                    </CharString>
                    <CharString index="10">
                        rmoveto
            -92 callgsubr
            390 hlineto
            21 88 rlineto
            endchar
          
                    </CharString>
                    <CharString index="11">
                        rmoveto
            43 -39 38 -99 24 vhcurveto
            164 104 9 70 rlineto
            -268 hlineto
            -14 -71 rlineto
            179 hlineto
            -170 -105 -5 -35 rlineto
            return
          
                    </CharString>
                    <CharString index="12">
                        rmoveto
            -98 callgsubr
            return
          
                    </CharString>
                    <CharString index="13">
                        rmoveto
            -61 43 -89 77 -59 59 -66 -85 rcurveline
            68 -48 113 -62 70 -28 rrcurveto
            return
          
                    </CharString>
                    <CharString index="14">
                        15 -52 -52 7 -45 hhcurveto
            -190 -120 -180 -185 -105 45 -50 60 54 68 46 56 58 hvcurveto
            return
          
                    </CharString>
                    <CharString index="15">
                        -100 -206 -97 -209 -90 -206 rrcurveto
            112 hlineto
            23 57 25 57 24 57 rrcurveto
            186 hlineto
            return
          
                    </CharString>
                    <CharString index="16">
                        -28 callsubr
            hintmask 10110000
            -89 callsubr
          
                    </CharString>
                    <CharString index="17">
                        -26 -130 -23 -101 -31 -140 rrcurveto
            -5 hlineto
            -28 241 rlineto
            -65 hlineto
            -121 -240 rlineto
            -3 hlineto
            21 135 15 103 24 132 rrcurveto
            -106 hlineto
            -27 -188 -19 -201 -4 -108 rrcurveto
            100 hlineto
            123 236 rlineto
            endchar
          
                    </CharString>
                    <CharString index="18">
                        -15 -65 -86 -373 -10 -32 rrcurveto
            -4 hlineto
            -15 284 rlineto
            -62 hlineto
            -126 -284 rlineto
            -4 hlineto
            2 32 58 373 10 65 rrcurveto
            -110 hlineto
            -39 -265 -24 -237 -4 -118 rrcurveto
            107 hlineto
            132 296 rlineto
            endchar
          
                    </CharString>
                    <CharString index="19">
                        -83 callsubr
            56 56 35 67 60 hvcurveto
            return
          
                    </CharString>
                    <CharString index="20">
                        rmoveto
            -7 55 -138 -39 -24 21 170 410 rlinecurve
            -51 25 rlineto
            hintmask 11100000
            -52 -26 -68 -20 -61 -10 rrcurveto
            2 10 1 10 9 vvcurveto
            35 -20 20 -31 -60 -60 -61 -51 -30 23 -18 35 -8 vhcurveto
            -29 -55 -43 -55 -58 -68 39 -40 rcurveline
            70 70 59 76 37 67 40 2 44 8 43 12 rrcurveto
            return
          
                    </CharString>
                    <CharString index="21">
                        rmoveto
            8 hlineto
            6 -90 6 -91 5 -91 79 callsubr
            hlineto
            40 91 41 91 40 90 rrcurveto
            endchar
          
                    </CharString>
                    <CharString index="22">
                        rmoveto
            -101 56 -58 81 114 93 119 135 102 -54 58 -82 -115 -93 -119 -136 vhcurveto
            260 89 rmoveto
            -87 -45 -90 -66 -40 -24 32 62 87 44 92 66 41 24 -33 -63 vhcurveto
            endchar
          
                    </CharString>
                    <CharString index="23">
                        20 70 rlineto
            -51 hlineto
            25 124 -79 -6 -23 -118 rlineto
            -123 hlineto
            47 69 37 69 39 114 -90 4 rcurveline
            return
          
                    </CharString>
                    <CharString index="24">
                        69 318 -105 -7 -84 -126 49 -32 -36 -167 rlineto
            -123 -27 36 -61 76 hhcurveto
            return
          
                    </CharString>
                    <CharString index="25">
                        -62 callsubr
            hintmask 11011000
            -49 callsubr
            hintmask 10111000
            -37 callsubr
          
                    </CharString>
                    <CharString index="26">
                        -66 callsubr
            14 callgsubr
            -26 callsubr
            return
          
                    </CharString>
                    <CharString index="27">
                        -53 -26 57 316 112 hvcurveto
            -104 -4 rlineto
            -372 -138 56 -92 96 hhcurveto
            65 70 40 52 54 hvcurveto
            4 -86 9 -66 -20 -20 -21 -20 -86 -12 -171 13 -15 -103 rcurveline
            return
          
                    </CharString>
                    <CharString index="28">
                        rmoveto
            45 28 -25 -35 -70 -93 -38 -150 -12 hvcurveto
            92 18 64 88 88 hhcurveto
            endchar
          
                    </CharString>
                    <CharString index="29">
                        rmoveto
            83 353 -104 -3 -33 99 callsubr
            -127 -38 -62 49 127 vvcurveto
            142 74 157 104 56 11 -46 -97 -2 vhcurveto
            104 2 rlineto
            163 9 -42 77 -115 hhcurveto
            -171 -140 -197 -217 hvcurveto
            return
          
                    </CharString>
                    <CharString index="30">
                        2 callgsubr
            -74 callsubr
            return
          
                    </CharString>
                    <CharString index="31">
                        75 callsubr
            hintmask 10100000
            -72 callgsubr
            hintmask 01010000
            -10 callgsubr
            hintmask 10010000
            22 callgsubr
            endchar
          
                    </CharString>
                    <CharString index="32">
                        rmoveto
            30 60 -21 105 98 vvcurveto
            6 vlineto
            55 100 38 127 47 vvcurveto
            21 -46 12 -28 -37 -67 -160 -149 -6 vhcurveto
            -47 -49 -49 -25 -34 hhcurveto
            return
          
                    </CharString>
                    <CharString index="33">
                        -54 callsubr
            -13 29 67 15 hvcurveto
            return
          
                    </CharString>
                    <CharString index="34">
                        -50 callsubr
            hintmask 01111000
            -22 -108 rlineto
            hintmask 10111000
            -40 callsubr
            endchar
          
                    </CharString>
                    <CharString index="35">
                        728 -107 callgsubr
            return
          
                    </CharString>
                    <CharString index="36">
                        rmoveto
            436 hlineto
            14 68 rlineto
            -436 hlineto
            return
          
                    </CharString>
                    <CharString index="37">
                        -55 callgsubr
            hintmask 11011110
            -13 callgsubr
            hintmask 11101110
            -58 callgsubr
          
                    </CharString>
                    <CharString index="38">
                        rmoveto
            -17 54 -142 -60 -74 5 -15 104 rlinecurve
            209 153 102 152 124 vvcurveto
            72 -39 40 -63 return
          
                    </CharString>
                    <CharString index="39">
                        14 -31 -31 7 -35 hhcurveto
            -169 -117 -165 -164 -104 52 -49 67 59 60 39 52 49 hvcurveto
            4 -80 15 -67 -19 -19 -20 -21 -92 -13 -175 13 -11 -103 rcurveline
            return
          
                    </CharString>
                    <CharString index="40">
                        -38 callgsubr
            -22 callgsubr
            -56 callgsubr
          
                    </CharString>
                    <CharString index="41">
                        rmoveto
            73 56 -149 149 rlineto
            -6 hlineto
            return
          
                    </CharString>
                    <CharString index="42">
                        97 hlineto
            hintmask 11010000
            -9 callgsubr
            hintmask 10110000
            -41 callsubr
            return
          
                    </CharString>
                    <CharString index="43">
                        -37 -33 92 -66 hhcurveto
            -53 -56 -54 -82 -48 hvcurveto
            53 -30 rlineto
            53 34 27 32 22 hhcurveto
            return
          
                    </CharString>
                    <CharString index="44">
                        rmoveto
            hintmask 00111000
            -29 callsubr
            hintmask 01011000
            -46 callgsubr
            endchar
          
                    </CharString>
                    <CharString index="45">
                        rmoveto
            -10 56 -197 -41 -16 14 22 87 rlinecurve
            87 333 rlineto
            -91 hlineto
            return
          
                    </CharString>
                    <CharString index="46">
                        rmoveto
            -7 54 -198 -53 -30 29 22 95 rlinecurve
            52 235 rlineto
            183 hlineto
            16 83 rlineto
            -180 hlineto
            32 145 -81 -6 -86 -139 rlineto
            -60 hlineto
            -21 -83 rlineto
            92 hlineto
            -54 -241 -37 -166 99 -87 258 134 rlinecurve
            return
          
                    </CharString>
                    <CharString index="47">
                        -102 callgsubr
            8 callgsubr
            hintmask 11101000
            -44 callsubr
            hintmask 11011000
            26 callgsubr
            hintmask 11101000
            -86 callgsubr
          
                    </CharString>
                    <CharString index="48">
                        rmoveto
            45 80 rlineto
            -135 57 -61 40 45 vvcurveto
            hintmask 11010000
            61 114 34 74 vvcurveto
            34 -23 32 -66 22 vhcurveto
            hintmask 11001000
            91 23 35 47 41 vvcurveto
            hintmask 10100000
            49 -61 59 39 vvcurveto
            46 75 34 181 34 vhcurveto
            -20 89 rlineto
            -257 -61 -81 -78 -74 vvcurveto
            hintmask 11001000
            -63 64 -52 -38 vvcurveto
            -28 -32 -23 -118 -6 vhcurveto
            -16 -76 98 callgsubr
            84 -12 40 -23 -32 vvcurveto
            hintmask 11001000
            -50 -119 -32 -90 vvcurveto
            -67 71 -51 189 -84 vhcurveto
            endchar
          
                    </CharString>
                    <CharString index="49">
                        rmoveto
            hintmask 10010000
            257 62 81 78 74 vvcurveto
            hintmask 11001000
            63 -64 52 38 vvcurveto
            28 32 23 118 6 vhcurveto
            16 76 rlineto
            hintmask 10101000
            -84 12 -40 23 32 vvcurveto
            hintmask 11001000
            50 119 32 90 vvcurveto
            66 -70 52 -190 84 vhcurveto
            -44 -80 rlineto
            135 -58 60 -40 -44 vvcurveto
            hintmask 10101000
            -61 -114 -34 -74 vvcurveto
            -34 23 -32 67 -23 vhcurveto
            hintmask 11001000
            -91 -22 -35 -48 -41 vvcurveto
            hintmask 10010000
            -49 61 -58 -40 vvcurveto
            -45 -76 -35 -180 -33 vhcurveto
            endchar
          
                    </CharString>
                    <CharString index="50">
                        rmoveto
            -84 -60 -52 -62 -55 49 -45 76 83 60 53 62 54 -49 45 -75 hvcurveto
            return
          
                    </CharString>
                    <CharString index="51">
                        475 63 -104 callgsubr
            return
          
                    </CharString>
                    <CharString index="52">
                        472 541 -96 callsubr
            return
          
                    </CharString>
                    <CharString index="53">
                        -63 -323 rlineto
            -57 -48 -45 -29 -36 hhcurveto
            -38 return
          
                    </CharString>
                    <CharString index="54">
                        -16 callgsubr
            hintmask 10100100
            -27 callgsubr
            hintmask 01011000
            -45 callgsubr
            hintmask 10100100
            -40 callgsubr
            hintmask 10011000
            17 callgsubr
          
                    </CharString>
                    <CharString index="55">
                        -16 callgsubr
            hintmask 10101010
            -27 callgsubr
            hintmask 01011100
            -45 callgsubr
            hintmask 10101010
            -40 callgsubr
            hintmask 10011100
            -9 callsubr
            return
          
                    </CharString>
                    <CharString index="56">
                        rmoveto
            10 hlineto
            hintmask 11111000
            -55 -282 rlineto
            -86 hlineto
            hintmask 10111000
            44 94 43 94 44 94 rrcurveto
            -93 -529 rmoveto
            248 hlineto
            23 91 rlineto
            -160 hlineto
            36 57 callsubr
            -126 66 callgsubr
            155 hlineto
            18 91 rlineto
            -322 hlineto
            -104 -206 -105 -209 -101 -205 rrcurveto
            108 hlineto
            hintmask 11111000
            26 55 27 56 26 56 rrcurveto
            108 hlineto
            endchar
          
                    </CharString>
                    <CharString index="57">
                        rmoveto
            -17 callsubr
            -18 callsubr
            return
          
                    </CharString>
                    <CharString index="58">
                        -208 -49 7 -56 167 14 -71 -261 rlineto
            return
          
                    </CharString>
                    <CharString index="59">
                        rmoveto
            -345 hlineto
            -18 -89 rlineto
            346 hlineto
            return
          
                    </CharString>
                    <CharString index="60">
                        26 94 -285 -3 337 317 18 90 rlineto
            -393 hlineto
            -25 -94 276 3 -338 -317 -18 -90 rlineto
            endchar
          
                    </CharString>
                    <CharString index="61">
                        -35 -114 -33 -70 -49 -84 -6 -58 rcurveline
            199 hlineto
            return
          
                    </CharString>
                    <CharString index="62">
                        -43 callsubr
            endchar
          
                    </CharString>
                    <CharString index="63">
                        -92 -53 -21 -35 -39 vvcurveto
            -54 52 -38 86 vhcurveto
            return
          
                    </CharString>
                    <CharString index="64">
                        -9 -75 79 callgsubr
            -17 84 75 73 vvcurveto
            return
          
                    </CharString>
                    <CharString index="65">
                        72 callgsubr
            167 83 272 95 return
          
                    </CharString>
                    <CharString index="66">
                        -118 422 -107 -4 -120 -618 rlineto
            104 hlineto
            79 425 rlineto
            5 hlineto
            return
          
                    </CharString>
                    <CharString index="67">
                        318 -65 125 102 103 -31 callsubr
            return
          
                    </CharString>
                    <CharString index="68">
                        -78 callsubr
            hintmask 01111100
            9 callsubr
            endchar
          
                    </CharString>
                    <CharString index="69">
                        -218 -50 -70 31 115 vvcurveto
            116 75 103 93 49 19 -25 -67 vhcurveto
            return
          
                    </CharString>
                    <CharString index="70">
                        -42 -154 86 -56 266 113 rrcurveto
            endchar
          
                    </CharString>
                    <CharString index="71">
                        -8 -104 45 -37 154 92 rrcurveto
            endchar
          
                    </CharString>
                    <CharString index="72">
                        -48 callgsubr
            -99 -4 callsubr
            return
          
                    </CharString>
                    <CharString index="73">
                        -12 101 -100 93 336 90 0 -20 return
          
                    </CharString>
                    <CharString index="74">
                        81 51 69 -27 -59 vvcurveto
            -38 -25 -33 -48 vhcurveto
            endchar
          
                    </CharString>
                    <CharString index="75">
                        679 -81 callsubr
            return
          
                    </CharString>
                    <CharString index="76">
                        138 -247 62 104 vvcurveto
            46 40 37 55 57 34 -29 -74 16 vhcurveto
            return
          
                    </CharString>
                    <CharString index="77">
                        -155 -115 -148 -172 return
          
                    </CharString>
                    <CharString index="78">
                        120 16 -129 256 rlineto
            98 54 64 68 89 vvcurveto
            103 -92 77 -277 -38 vhcurveto
            return
          
                    </CharString>
                    <CharString index="79">
                        110 hlineto
            39 117 67 236 65 267 rrcurveto
            -108 hlineto
            return
          
                    </CharString>
                    <CharString index="80">
                        33 16 40 18 49 21 -25 46 rcurveline
            return
          
                    </CharString>
                    <CharString index="81">
                        48 -55 150 102 rlineto
            return
          
                    </CharString>
                    <CharString index="82">
                        21 callgsubr
            hintmask 01110000
            -119 -616 93 callgsubr
            23 callsubr
            -111 -11 rmoveto
            34 callsubr
            86 447 34 callgsubr
            endchar
          
                    </CharString>
                    <CharString index="83">
                        -231 -59 -78 21 -3 110 return
          
                    </CharString>
                    <CharString index="84">
                        476 555 -93 callgsubr
            return
          
                    </CharString>
                    <CharString index="85">
                        101 hlineto
            68 199 44 140 41 158 rrcurveto
            59 callgsubr
            return
          
                    </CharString>
                    <CharString index="86">
                        -31 callgsubr
            hintmask 00111100
            return
          
                    </CharString>
                    <CharString index="87">
                        68 86 -16 callsubr
            return
          
                    </CharString>
                    <CharString index="88">
                        0 150 -129 11 callgsubr
            hstemhm
            302.5 59 hintmask 01110000
            return
          
                    </CharString>
                    <CharString index="89">
                        -145 244 -63 -89 vvcurveto
            -52 -78 -36 -228 62 vhcurveto
            return
          
                    </CharString>
                    <CharString index="90">
                        114 -19 -53 63 -110 101 callsubr
            -93 -90 -99 hvcurveto
            return
          
                    </CharString>
                    <CharString index="91">
                        70 -70 71 197.5 69 hstemhm
            return
          
                    </CharString>
                    <CharString index="92">
                        3 -19 -18 1 -17 hhcurveto
            -186 -119 -178 -179 -111 48 -55 61 53 66 44 55 56 hvcurveto
            return
          
                    </CharString>
                    <CharString index="93">
                        -63 callgsubr
            93 callsubr
            return
          
                    </CharString>
                    <CharString index="94">
                        34 -139 127 -16 189 110 rrcurveto
            return
          
                    </CharString>
                    <CharString index="95">
                        3 -59 3 -58 3 -58 rrcurveto
            return
          
                    </CharString>
                    <CharString index="96">
                        92 vstem
            451 425 -95 callsubr
            return
          
                    </CharString>
                    <CharString index="97">
                        279 420 rlineto
            -119 hlineto
            -193 -309 rlineto
            return
          
                    </CharString>
                    <CharString index="98">
                        -75 -60 -153 -7 callsubr
            return
          
                    </CharString>
                    <CharString index="99">
                        rmoveto
            265 186 101 152 167 vvcurveto
            124 -57 132 -142 164 vhcurveto
            -84 -60 rlineto
            130 -142 48 -113 -106 vvcurveto
            -141 -73 -128 -246 -164 vhcurveto
            endchar
          
                    </CharString>
                    <CharString index="100">
                        -76 vvcurveto
            -74 65 -21 132 81 vhcurveto
            return
          
                    </CharString>
                    <CharString index="101">
                        -11 callgsubr
            hstemhm
            return
          
                    </CharString>
                    <CharString index="102">
                        vstem
            449 hmoveto
            -37 callgsubr
            return
          
                    </CharString>
                    <CharString index="103">
                        -154 -71 callsubr
            return
          
                    </CharString>
                    <CharString index="104">
                        50 callsubr
            177 102 return
          
                    </CharString>
                    <CharString index="105">
                        -11 92 104 59 180 88 return
          
                    </CharString>
                    <CharString index="106">
                        50 callgsubr
            hintmask 10010000
            -72 callgsubr
            return
          
                    </CharString>
                    <CharString index="107">
                        24 callsubr
            hstemhm
            54 509 hintmask 01110000
            return
          
                    </CharString>
                    <CharString index="108">
                        77.5 135 hstem
            return
          
                    </CharString>
                    <CharString index="109">
                        -3 callsubr
            hintmask 01101110
            return
          
                    </CharString>
                    <CharString index="110">
                        -11 94 317 98 0 -20 return
          
                    </CharString>
                    <CharString index="111">
                        0 92.5 313 92.5 return
          
                    </CharString>
                    <CharString index="112">
                        -26 callgsubr
            -1 callgsubr
            hintmask 01011100
            return
          
                    </CharString>
                    <CharString index="113">
                        -170 98 104 95 373 -20 28 -20 return
          
                    </CharString>
                    <CharString index="114">
                        -15 callgsubr
            hstem
            48 return
          
                    </CharString>
                    <CharString index="115">
                        rmoveto
            88 56 -130 203 206 202 -67 67 -203 -210 -22 -109 rlineto
            371 -209 rmoveto
            87 54 -127 206 rlineto
            return
          
                    </CharString>
                    <CharString index="116">
                        -175 101 -86 178 42 vhcurveto
            -25 -109 rlineto
            return
          
                    </CharString>
                    <CharString index="117">
                        hstemhm
            321 112 -52 114 return
          
                    </CharString>
                    <CharString index="118">
                        20 -35 -38 10 -37 101 callsubr
            -103 -192 -186 -91 30 -41 52 50 46 34 47 42 hvcurveto
            28 -89 87 -32 166 106 rrcurveto
            return
          
                    </CharString>
                    <CharString index="119">
                        55 -18 rcurveline
            10 callgsubr
            endchar
          
                    </CharString>
                    <CharString index="120">
                        -1 callgsubr
            hintmask 01011110
            return
          
                    </CharString>
                    <CharString index="121">
                        hstemhm
            359 119 return
          
                    </CharString>
                    <CharString index="122">
                        -59 43 -54 -61 rlineto
            24 -31 -40 13 -47 hhcurveto
            -30 callsubr
            -46 9 -39 17 -31 hvcurveto
            -65 -72 rlineto
            return
          
                    </CharString>
                    <CharString index="123">
                        22 callsubr
            -1 111 hintmask 11010000
            return
          
                    </CharString>
                    <CharString index="124">
                        241 -11 115 44 35 69 rrcurveto
            endchar
          
                    </CharString>
                    <CharString index="125">
                        rmoveto
            318 hlineto
            17 85 rlineto
            -211 hlineto
            136 705 rlineto
            211 hlineto
            17 86 rlineto
            -317 hlineto
            endchar
          
                    </CharString>
                    <CharString index="126">
                        3 callsubr
            27 callsubr
            hintmask 10110000
            return
          
                    </CharString>
                    <CharString index="127">
                        -171 98 101 96 299 87 4 -20 return
          
                    </CharString>
                    <CharString index="128">
                        13 -21 29 -21 29 -21 526 93 hstemhm
            return
          
                    </CharString>
                    <CharString index="129">
                        -11 85 430 -20 hstemhm
            108 171 return
          
                    </CharString>
                    <CharString index="130">
                        353 -46 141 205 227 vvcurveto
            return
          
                    </CharString>
                    <CharString index="131">
                        0 126 -105 -21 497 -20 return
          
                    </CharString>
                    <CharString index="132">
                        -13 89 347 89 return
          
                    </CharString>
                    <CharString index="133">
                        80 -24 79 90 78 return
          
                    </CharString>
                    <CharString index="134">
                        hstemhm
            163 112 return
          
                    </CharString>
                    <CharString index="135">
                        rmoveto
            270 211 27 109 -190 221 -77 -73 172 -195 -263 -189 rlineto
            endchar
          
                    </CharString>
                    <CharString index="136">
                        77 callsubr
            hstemhm
            211 189 -33 107 hintmask 10010000
            return
          
                    </CharString>
                    <CharString index="137">
                        -13 100 448 98 64 callgsubr
            return
          
                    </CharString>
                    <CharString index="138">
                        7 callsubr
            500 vstem
            return
          
                    </CharString>
                    <CharString index="139">
                        rmoveto
            202 210 23 108 -129 210 -88 -57 130 -203 -206 -202 rlineto
            return
          
                    </CharString>
                    <CharString index="140">
                        rmoveto
            78 73 -173 195 263 190 -60 83 -270 -211 -27 -108 rlineto
            endchar
          
                    </CharString>
                    <CharString index="141">
                        -159 -85 -141 -171 11 vhcurveto
            return
          
                    </CharString>
                    <CharString index="142">
                        105 hstem
            116 108 215 99 return
          
                    </CharString>
                    <CharString index="143">
                        -14 96 538 -20 return
          
                    </CharString>
                    <CharString index="144">
                        hmoveto
            33 146 98 callsubr
            -32 99 callsubr
            return
          
                    </CharString>
                    <CharString index="145">
                        hstemhm
            61 109 183 92 return
          
                    </CharString>
                    <CharString index="146">
                        -11 49 rlineto
            -98 -33 -39 return
          
                    </CharString>
                    <CharString index="147">
                        rmoveto
            42 callsubr
          
                    </CharString>
                    <CharString index="148">
                        120 51 140 62 16 20 -4 -16 23 vhcurveto
            -43 -67 -27 -91 -97 vvcurveto
            -2 vlineto
            return
          
                    </CharString>
                    <CharString index="149">
                        -37 callgsubr
            endchar
          
                    </CharString>
                    <CharString index="150">
                        0 9 7 6 9 9 7 -6 45 callsubr
            return
          
                    </CharString>
                    <CharString index="151">
                        72 253 75 hstem
            return
          
                    </CharString>
                    <CharString index="152">
                        0 hflex1
            return
          
                    </CharString>
                    <CharString index="153">
                        -3 21 19 -1 18 hhcurveto
            187 120 177 180 111 -49 54 -61 return
          
                    </CharString>
                    <CharString index="154">
                        57 hstem
            41 63 361 63 vstem
            41 247 rmoveto
            -153 85 -87 119 return
          
                    </CharString>
                    <CharString index="155">
                        141 80 callsubr
            hlineto
            -26 -141 rlineto
            return
          
                    </CharString>
                    <CharString index="156">
                        72 3 -20 142 -20 148 71 hstemhm
            return
          
                    </CharString>
                    <CharString index="157">
                        hstemhm
            40 108 return
          
                    </CharString>
                    <CharString index="158">
                        -8 -101 45 -34 159 91 rrcurveto
            endchar
          
                    </CharString>
                    <CharString index="159">
                        14 callsubr
            hintmask 00111110
            return
          
                    </CharString>
                    <CharString index="160">
                        -10 95 -64 -21 534 99 return
          
                    </CharString>
                    <CharString index="161">
                        -211 73 -30 30 return
          
                    </CharString>
                    <CharString index="162">
                        -34 callsubr
            -3 callsubr
            return
          
                    </CharString>
                    <CharString index="163">
                        207 197 -66 69 -204 -205 -24 -108 rlineto
            endchar
          
                    </CharString>
                    <CharString index="164">
                        183 rlineto
            126 hlineto
            15 76 rlineto
            return
          
                    </CharString>
                    <CharString index="165">
                        18 callgsubr
            -10 -20 return
          
                    </CharString>
                    <CharString index="166">
                        0 91 76 80 27 76 179 91 hstemhm
            -30 632 hintmask 10111000
            return
          
                    </CharString>
                    <CharString index="167">
                        -5 92 -65 -21 533 93 hstemhm
            417 111 hintmask 10110000
            return
          
                    </CharString>
                    <CharString index="168">
                        25 callsubr
            -6 callgsubr
            return
          
                    </CharString>
                    <CharString index="169">
                        -20 38 callsubr
            return
          
                    </CharString>
                    <CharString index="170">
                        39 callgsubr
            hstem
            return
          
                    </CharString>
                    <CharString index="171">
                        -13 93 332 83 145 -20 return
          
                    </CharString>
                    <CharString index="172">
                        85 -43 161 79 vhcurveto
            return
          
                    </CharString>
                    <CharString index="173">
                        71 273 70 hstem
            return
          
                    </CharString>
                    <CharString index="174">
                        85 175 84 vstem
            return
          
                    </CharString>
                    <CharString index="175">
                        81 151 79 return
          
                    </CharString>
                    <CharString index="176">
                        518 41 -16 callgsubr
            return
          
                    </CharString>
                    <CharString index="177">
                        65 callgsubr
            406 98 194 -20 hstemhm
            return
          
                    </CharString>
                    <CharString index="178">
                        57 -43 55 60 rlineto
            -22 31 39 -12 46 hhcurveto
            endchar
          
                    </CharString>
                    <CharString index="179">
                        65 334 rlineto
            -72 hlineto
            -89 -182 rlineto
            -3 hlineto
            return
          
                    </CharString>
                    <CharString index="180">
                        -6 2 -3 5 4 2 2 4 1 vhcurveto
            5 hlineto
            return
          
                    </CharString>
                    <CharString index="181">
                        hintmask 010000000000000000000000000000000000000000000000
            return
          
                    </CharString>
                    <CharString index="182">
                        rmoveto
            50 callgsubr
            return
          
                    </CharString>
                    <CharString index="183">
                        hstemhm
            57 112 243 104 return
          
                    </CharString>
                    <CharString index="184">
                        -8 93 -93 97 return
          
                    </CharString>
                    <CharString index="185">
                        -20 23 -20 hstemhm
            return
          
                    </CharString>
                    <CharString index="186">
                        rrcurveto
            -146 return
          
                    </CharString>
                    <CharString index="187">
                        rlineto
            -139 return
          
                    </CharString>
                    <CharString index="188">
                        -32 -149 -151 15 -17 -85 150 -15 return
          
                    </CharString>
                    <CharString index="189">
                        -11 92 338 92 return
          
                    </CharString>
                    <CharString index="190">
                        109 -12 102 -80 104 -62 99 hintmask 11001000
            return
          
                    </CharString>
                    <CharString index="191">
                        253 77 rmoveto
            -21 -33 5 12 -36 hvcurveto
            return
          
                    </CharString>
                    <CharString index="192">
                        hvcurveto
            -59 32 rlineto
            -55 -35 -26 -37 -25 hhcurveto
            return
          
                    </CharString>
                    <CharString index="193">
                        21 -21 525 95 hstem
            return
          
                    </CharString>
                    <CharString index="194">
                        79 151 81 return
          
                    </CharString>
                    <CharString index="195">
                        91 129 91 hstem
            49 473 vstem
            return
          
                    </CharString>
                    <CharString index="196">
                        -7 90 -89 95 331 84 -83 87 return
          
                    </CharString>
                    <CharString index="197">
                        84 267.5 112 hstem
            return
          
                    </CharString>
                    <CharString index="198">
                        68 81 53 callgsubr
            return
          
                    </CharString>
                    <CharString index="199">
                        hstemhm
            21 109 102 100 136 99 return
          
                    </CharString>
                    <CharString index="200">
                        -10 -75 rlineto
            return
          
                    </CharString>
                    <CharString index="201">
                        hstemhm
            48 106 190 84 hintmask 11101110
            return
          
                    </CharString>
                    <CharString index="202">
                        -72 -2 -65 -333 rlineto
            64 hlineto
            return
          
                    </CharString>
                    <CharString index="203">
                        53 133 63 hstem
            return
          
                    </CharString>
                    <CharString index="204">
                        72 253 71 hstem
            return
          
                    </CharString>
                    <CharString index="205">
                        rlineto
            -113 hlineto
            return
          
                    </CharString>
                    <CharString index="206">
                        -146 rlineto
            return
          
                    </CharString>
                    <CharString index="207">
                        -20 22 -20 return
          
                    </CharString>
                    <CharString index="208">
                        hhcurveto
            -136 return
          
                    </CharString>
                <CharString name=".notdef">
                    -200 50 900 50 hstem
          0.5 53.5 432 54.5 vstem
          8 -200 rmoveto
          540 hlineto
          -15 1000 rlineto
          -540 hlineto
          77 -50 rmoveto
          387 hlineto
          -188 -390 rlineto
          211 316 rmoveto
          12 -752 -191 376 rlineto
          -241 -376 rmoveto
          -12 752 192 -376 rlineto
          31 -60 rmoveto
          200 -390 rlineto
          -387 hlineto
          endchar
        
                </CharString>
                <CharString name="A">
                    -31 callgsubr
          hintmask 10011100
          368 -4 -103 callsubr
        
                </CharString>
                <CharString name="AE">
                    59 callsubr
          325 529 -51 callsubr
        
                </CharString>
                <CharString name="AEacute">
                    59 callsubr
          305 -72 callsubr
          20 -199 -51 callsubr
        
                </CharString>
                <CharString name="Aacute">
                    -21 callsubr
          234 729 -107 callgsubr
          hintmask 10011100
          134 -733 -103 callsubr
        
                </CharString>
                <CharString name="Abreve">
                    -54 callgsubr
          66 84 52 callsubr
          530 871 -103 callgsubr
          hintmask 10011110
          -223 -838 -95 callgsubr
        
                </CharString>
                <CharString name="Acircumflex">
                    -21 callsubr
          488 680 -81 callsubr
          hintmask 10011100
          -22 -790 -103 callsubr
        
                </CharString>
                <CharString name="Adieresis">
                    -54 callgsubr
          39 callgsubr
          52 callsubr
          527 700 -102 callsubr
          hintmask 10011110
          174 -701 -95 callgsubr
        
                </CharString>
                <CharString name="Agrave">
                    -21 callsubr
          512 722 -94 callsubr
          hintmask 10011100
          -120 -682 -103 callsubr
        
                </CharString>
                <CharString name="Amacron">
                    -54 callgsubr
          102 89 52 callsubr
          564 812 -48 callsubr
          hintmask 10011110
          -179 -727 -95 callgsubr
        
                </CharString>
                <CharString name="Aogonek">
                    54 callsubr
          159 -42 callsubr
          hstemhm
          200 98 61 119 hintmask 10011111
          446 -168 rmoveto
          hintmask 01011111
          91 callgsubr
          33 49 41 131 36 vhcurveto
          -42 callgsubr
          rrcurveto
          -153 hlineto
          hintmask 10101111
          -92 callsubr
          3 -52 2 -51 3 -51 -121 -50 -47 -56 1 -48 rrcurveto
          hintmask 10011111
          1 -67 85 -43 160 79 rrcurveto
          hintmask 01011111
          -116 694 -86 callsubr
        
                </CharString>
                <CharString name="Aring">
                    -54 callgsubr
          53 214 52 callsubr
          394 888 -57 callsubr
          hintmask 10011110
          -26 -892 -95 callgsubr
        
                </CharString>
                <CharString name="Aringacute">
                    -21 callsubr
          288 969 -107 callgsubr
          106 -81 -57 callsubr
          hintmask 10011100
          -26 -892 -103 callsubr
        
                </CharString>
                <CharString name="Atilde">
                    -54 callgsubr
          70 82 11 81 14 callsubr
          hintmask 00111101
          463 773 rmoveto
          hintmask 00111111
          -64 callsubr
          hintmask 00111101
          -64 callgsubr
          hintmask 10011101
          -95 -777 rmoveto
          hintmask 00111101
          -74 callgsubr
          hintmask 01011101
          -92 callsubr
          hintmask 10011101
          -12 callsubr
          hintmask 00111101
          -87 callgsubr
        
                </CharString>
                <CharString name="B">
                    -7 91 -62 -21 536 90 hstemhm
          386 107 -76 108 hintmask 10110000
          493 192 rmoveto
          62 -41 48 -68 19 vhcurveto
          hintmask 01101000
          89 34 52 61 71 vvcurveto
          99 -105 70 -262 -40 vhcurveto
          -119 -615 93 callgsubr
          331 -41 123 115 117 vvcurveto
          hintmask 10101000
          -76 271 rmoveto
          -60 -61 -55 -141 -9 vhcurveto
          38 198 rlineto
          109 12 55 -32 -54 vvcurveto
          hintmask 10110000
          -31 -276 rmoveto
          -67 -72 -52 -148 20 vhcurveto
          37 187 rlineto
          128 11 55 -38 -61 vvcurveto
          endchar
        
                </CharString>
                <CharString name="C">
                    30 callsubr
          376 633 -79 callgsubr
        
                </CharString>
                <CharString name="Cacute">
                    30 callsubr
          245 741 -107 callgsubr
          131 -108 -79 callgsubr
        
                </CharString>
                <CharString name="Ccaron">
                    30 callsubr
          375 689 -89 callgsubr
          8 -56 -79 callgsubr
        
                </CharString>
                <CharString name="Ccedilla">
                    -66 153 -99 99 -68 -21 537 98 hstemhm
          58 111 105 93 53 105 hintmask 10011110
          367 -186 rmoveto
          hintmask 01011110
          5 88 -23 57 -37 29 44 4 48 11 53 18 11 99 rcurveline
          -69 callgsubr
          25 callgsubr
          hvcurveto
          hintmask 00111110
          -121 48 -80 91 -27 vhcurveto
          hintmask 10011110
          -39 -21 -35 -47 -31 -75 12 callsubr
        
                </CharString>
                <CharString name="Cdotaccent">
                    -13 100 448 98 77.5 135 64 callgsubr
          429 711 -49 callgsubr
          63 -77 -79 callgsubr
        
                </CharString>
                <CharString name="D">
                    60 callsubr
          528 387 -25 callsubr
        
                </CharString>
                <CharString name="Dcaron">
                    60 callsubr
          363 683 -89 callgsubr
          172 -296 -25 callsubr
        
                </CharString>
                <CharString name="Dcroat">
                    -57 callgsubr
        
                </CharString>
                <CharString name="E">
                    31 callsubr
          450 93 -101 callgsubr
        
                </CharString>
                <CharString name="Eacute">
                    31 callsubr
          241 -72 callsubr
          209 -635 -101 callgsubr
        
                </CharString>
                <CharString name="Ebreve">
                    -15 callgsubr
          66 84 hstem
          48 549 vstem
          536 870 -103 callgsubr
          -147 -740 -101 callgsubr
        
                </CharString>
                <CharString name="Ecaron">
                    7 callsubr
          536 vstem
          371 676 -89 callgsubr
          86 -583 -101 callgsubr
        
                </CharString>
                <CharString name="Ecircumflex">
                    7 callsubr
          519 vstem
          494 -32 callsubr
          54 -692 -101 callgsubr
        
                </CharString>
                <CharString name="Edieresis">
                    -15 callgsubr
          63 callsubr
          48 528 vstem
          533 -44 callgsubr
          250 -603 -101 callgsubr
        
                </CharString>
                <CharString name="Edotaccent">
                    -15 callgsubr
          1 callsubr
          48 500 vstem
          425 698 -49 callgsubr
          141 -604 -101 callgsubr
        
                </CharString>
                <CharString name="Egrave">
                    31 callsubr
          519 -24 callgsubr
          -45 -584 -101 callgsubr
        
                </CharString>
                <CharString name="Emacron">
                    -15 callgsubr
          102 89 hstem
          48 522 vstem
          570 811 -48 callsubr
          -103 -629 -101 callgsubr
        
                </CharString>
                <CharString name="Eogonek">
                    -212 74 -31 31 138 93 178 81 175 93 hstemhm
          148 97 hintmask 10111100
          393 -169 rmoveto
          hintmask 01111100
          56 callgsubr
          25 93 rlineto
          -99 callgsubr
          236 hlineto
          hintmask 10111100
          -97 -45 -39 -49 -44 63 callgsubr
          endchar
        
                </CharString>
                <CharString name="Eth">
                    -57 callgsubr
        
                </CharString>
                <CharString name="Euro">
                    -12 90 103 78 -68 71 75 70 136 91 hstemhm
          28 532 -455 101 258 96 hintmask 10111100
          482 37 rmoveto
          -10 64 -176 -49 -74 27 -14 112 rlinecurve
          199 hlineto
          17 71 rlineto
          hintmask 10111011
          -218 hlineto
          1 25 4 25 6 25 rrcurveto
          224 hlineto
          17 70 rlineto
          -218 hlineto
          77 33 54 59 64 hhcurveto
          50 16 -30 -59 7 hvcurveto
          96 15 rlineto
          113 -8 -45 52 -91 hhcurveto
          -117 -102 -92 -127 -54 hvcurveto
          -70 hlineto
          -16 -78 rlineto
          61 hlineto
          hintmask 11011010
          -6 -25 -4 -26 -3 -27 rrcurveto
          -61 hlineto
          -16 -78 rlineto
          78 hlineto
          hintmask 10111100
          16 -165 119 -90 241 111 rrcurveto
          endchar
        
                </CharString>
                <CharString name="F">
                    21 -21 255 86 184 95 hstem
          51 510 vstem
          447 255 rmoveto
          17 86 rlineto
          -236 hlineto
          36 184 rlineto
          280 hlineto
          17 95 rlineto
          -390 -35 callgsubr
          111 hlineto
          50 255 rlineto
          endchar
        
                </CharString>
                <CharString name="G">
                    53 callsubr
          76 callsubr
          hintmask 10111000
          412 -107 -78 callsubr
          hintmask 01111000
          9 callsubr
          endchar
        
                </CharString>
                <CharString name="Gbreve">
                    53 callsubr
          66 84 76 callsubr
          hintmask 10111100
          535 883 -103 callgsubr
          -184 -953 -39 callsubr
        
                </CharString>
                <CharString name="Gcommaaccent">
                    53 callsubr
          hstemhm
          57 112 -27 132 138 104 hintmask 10110100
          412 -107 -78 callsubr
          hintmask 01110100
          9 callsubr
          hintmask 10101100
          -207 -236 -98 callsubr
        
                </CharString>
                <CharString name="Gdotaccent">
                    53 callsubr
          77.5 135 76 callsubr
          hintmask 10111100
          424 711 -49 callgsubr
          104 -817 -39 callsubr
        
                </CharString>
                <CharString name="H">
                    21 -21 270 86 264 -20 hstem
          29 531 vstem
          328 hmoveto
          112 hlineto
          36 callgsubr
          -112 hlineto
          -51 -264 rlineto
          -186 hlineto
          51 264 rlineto
          -113 -35 callgsubr
          113 hlineto
          52 270 rlineto
          186 hlineto
          endchar
        
                </CharString>
                <CharString name="Hbar">
                    21 -21 253 87 96 77 -73 70 -70 180 hstemhm
          29 574 hintmask 11010100
          394 340 rmoveto
          -186 hlineto
          19 100 rlineto
          186 hlineto
          -85 -440 rmoveto
          112 hlineto
          hintmask 11100100
          84 436 rlineto
          64 hlineto
          15 77 rlineto
          -64 hlineto
          hintmask 11001100
          21 107 78 callgsubr
          hintmask 11010100
          -21 -110 rlineto
          -186 hlineto
          hintmask 11001100
          21 110 98 callsubr
          hintmask 11100100
          -21 -107 rlineto
          -64 hlineto
          -15 -77 rlineto
          64 hlineto
          -84 -436 rlineto
          113 hlineto
          49 253 rlineto
          186 hlineto
          endchar
        
                </CharString>
                <CharString name="I">
                    49 callgsubr
          295 88 -97 callsubr
        
                </CharString>
                <CharString name="Iacute">
                    49 callgsubr
          225 -72 callsubr
          70 -640 -97 callsubr
        
                </CharString>
                <CharString name="Ibreve">
                    37 callgsubr
          66 84 hstem
          28 554 vstem
          521 870 -103 callgsubr
          -287 -745 -97 callsubr
        
                </CharString>
                <CharString name="Icircumflex">
                    37 callgsubr
          hstem
          28 523 vstem
          478 -32 callsubr
          -85 -697 -97 callsubr
        
                </CharString>
                <CharString name="Idieresis">
                    37 callgsubr
          63 callsubr
          28 533 vstem
          518 -44 callgsubr
          110 -608 -97 callsubr
        
                </CharString>
                <CharString name="Idotaccent">
                    37 callgsubr
          1 callsubr
          28 508 vstem
          409 698 -49 callgsubr
          2 -609 -97 callsubr
        
                </CharString>
                <CharString name="Igrave">
                    49 callgsubr
          503 -24 callgsubr
          -184 -589 -97 callsubr
        
                </CharString>
                <CharString name="Imacron">
                    37 callgsubr
          102 89 hstem
          28 526 vstem
          554 811 -48 callsubr
          -242 -634 -97 callsubr
        
                </CharString>
                <CharString name="Iogonek">
                    54 callsubr
          138 88 444 88 hstemhm
          72 98 hintmask 10111000
          318 -168 rmoveto
          hintmask 01111000
          35 callgsubr
          32 33 38 84 36 vhcurveto
          131 hlineto
          21 88 rlineto
          -144 hlineto
          -92 callgsubr
          148 hlineto
          hintmask 10111000
          -73 -45 -31 -48 -43 vvcurveto
          -68 65 callsubr
          endchar
        
                </CharString>
                <CharString name="J">
                    -11 101 442 88 hstem
          30 475 vstem
          364 52 rmoveto
          28 28 14 32 35 181 64 327 rcurveline
          -307 hlineto
          -18 -88 rlineto
          196 hlineto
          -49 -251 -25 -124 -8 -27 -16 -16 rlinecurve
          -23 -23 -43 -3 -165 2 -17 -101 rcurveline
          205 -2 87 23 42 42 rrcurveto
          endchar
        
                </CharString>
                <CharString name="K">
                    65 callgsubr
          613 -20 hstemhm
          36 556 -14 callgsubr
          endchar
        
                </CharString>
                <CharString name="Kcommaaccent">
                    65 callgsubr
          613 -20 hstemhm
          183 132 -14 callgsubr
          -122 -888 -98 callsubr
        
                </CharString>
                <CharString name="L">
                    67 callgsubr
          hstem
          53 415 -5 callsubr
          endchar
        
                </CharString>
                <CharString name="Lacute">
                    67 callgsubr
          hstem
          53 496 vstem
          252 -72 callsubr
          197 -728 40 callsubr
        
                </CharString>
                <CharString name="Lcaron">
                    67 callgsubr
          101 -20 hstem
          463 118 vstem
          463 697 -30 callgsubr
          -132 -701 40 callsubr
        
                </CharString>
                <CharString name="Lcommaaccent">
                    67 callgsubr
          hstem
          173 132 -5 callsubr
          82 -261 -98 callsubr
        
                </CharString>
                <CharString name="Ldot">
                    0 95 166 127 232 -20 hstem
          53 464 -5 callsubr
          433 261 rmoveto
          31 127 rlineto
          -110 hlineto
          -32 -127 rlineto
          endchar
        
                </CharString>
                <CharString name="Lslash">
                    67 callgsubr
          hstem
          54 431 vstem
          466 hmoveto
          19 95 rlineto
          -284 hlineto
          46 241 147 68 -3 74 -128 -59 39 201 78 callgsubr
          -50 -258 -86 -40 3 -74 67 31 -54 -279 rlineto
          endchar
        
                </CharString>
                <CharString name="M">
                    21 -21 620 78 callsubr
          25 547 hintmask 10110000
          257 623 rmoveto
          -113 -6 54 callgsubr
          102 hlineto
          76 425 rlineto
          3 hlineto
          22 -302 rlineto
          61 hlineto
          141 302 rlineto
          4 hlineto
          -86 -425 rlineto
          105 hlineto
          hintmask 11010000
          119 620 rlineto
          -118 hlineto
          -168 -363 rlineto
          -2 hlineto
          endchar
        
                </CharString>
                <CharString name="N">
                    -6 callsubr
          30 532 hintmask 10110000
          345 hmoveto
          -65 callsubr
          endchar
        
                </CharString>
                <CharString name="NUL">
                    -107 endchar
        
                </CharString>
                <CharString name="Nacute">
                    -6 callsubr
          30 532 hintmask 10110000
          237 730 -107 callgsubr
          108 -730 rmoveto
          -65 callsubr
          endchar
        
                </CharString>
                <CharString name="Ncaron">
                    -6 callsubr
          30 551 hintmask 10110000
          368 678 -89 callgsubr
          -16 -678 rmoveto
          -65 callsubr
          endchar
        
                </CharString>
                <CharString name="Ncommaaccent">
                    -6 callsubr
          158 132 hintmask 10110000
          345 hmoveto
          -65 callsubr
          -98 -686 -98 callsubr
        
                </CharString>
                <CharString name="Ntilde">
                    -11 callgsubr
          90 82 11 81 hstemhm
          30 572 hintmask 10111100
          466 774 rmoveto
          hintmask 10101100
          -64 callsubr
          hintmask 10111100
          -64 callgsubr
          hintmask 11001100
          -121 -774 rmoveto
          97 hlineto
          -9 callgsubr
          hintmask 10101100
          -41 callsubr
          endchar
        
                </CharString>
                <CharString name="O">
                    -17 callgsubr
          346 632 -106 callgsubr
        
                </CharString>
                <CharString name="OE">
                    0 91 183 76 179 91 hstem
          44 110 vstem
          154 215 rmoveto
          96 43 213 132 5 vhcurveto
          -84 -438 rlineto
          -62 -29 44 80 hvcurveto
          346 -124 rmoveto
          -159 hlineto
          35 57 callsubr
          -127 66 callgsubr
          156 hlineto
          17 91 rlineto
          -205 hlineto
          -272 -77 -250 -158 -160 86 -52 132 hvcurveto
          214 hlineto
          endchar
        
                </CharString>
                <CharString name="Oacute">
                    -17 callgsubr
          238 742 -107 callgsubr
          108 -110 -106 callgsubr
        
                </CharString>
                <CharString name="Obreve">
                    28 callgsubr
          68 84 -19 callgsubr
          533 884 -103 callgsubr
          -248 -215 -106 callgsubr
        
                </CharString>
                <CharString name="Ocircumflex">
                    -17 callgsubr
          491 693 -81 callsubr
          -47 -167 -106 callgsubr
        
                </CharString>
                <CharString name="Odieresis">
                    28 callgsubr
          78.5 135 -19 callgsubr
          530 713 -102 callsubr
          149 -78 -106 callgsubr
        
                </CharString>
                <CharString name="Ograve">
                    -17 callgsubr
          516 735 -94 callsubr
          -146 -59 -106 callgsubr
        
                </CharString>
                <CharString name="Ohungarumlaut">
                    -17 callgsubr
          254 698 -77 callgsubr
          -74 -101 -106 callgsubr
        
                </CharString>
                <CharString name="Omacron">
                    28 callgsubr
          104 89 -19 callgsubr
          567 825 -48 callsubr
          -204 -104 -106 callgsubr
        
                </CharString>
                <CharString name="Omega">
                    0 88 450 96 hstem
          82 96 232 109 vstem
          196 7 rmoveto
          -11 64 -7 51 125 vvcurveto
          163 45 128 95 59 33 -42 -78 -96 -44 -127 -95 -188 vhcurveto
          1 -7 rlineto
          189 hlineto
          17 88 rlineto
          -81 hlineto
          82 135 40 113 99 vvcurveto
          123 -65 76 -117 -175 -80 -156 -197 -69 10 -61 13 -63 vhcurveto
          -86 hlineto
          -17 -88 rlineto
          190 hlineto
          endchar
        
                </CharString>
                <CharString name="Oslash">
                    40 callgsubr
          169 230 -70 callgsubr
        
                </CharString>
                <CharString name="Oslashacute">
                    40 callgsubr
          238 742 -107 callgsubr
          -69 -512 -70 callgsubr
        
                </CharString>
                <CharString name="Otilde">
                    28 callgsubr
          72 82 11 81 hstemhm
          52 116 253 116 vstemhm
          466 786 rmoveto
          hintmask 11011100
          -64 callsubr
          hintmask 11111100
          -64 callgsubr
          hintmask 11011100
          -120 -154 -106 callgsubr
        
                </CharString>
                <CharString name="P">
                    21 -21 535 92 hstem
          437 108 vstem
          152 hmoveto
          36 185 rlineto
          224 24 133 99 144 vvcurveto
          121 -110 83 -274 -39 vhcurveto
          54 callgsubr
          395 434 rmoveto
          -92 -81 -67 -149 8 vhcurveto
          48 248 rlineto
          121 17 61 -43 -71 vvcurveto
          endchar
        
                </CharString>
                <CharString name="Q">
                    539 95 hstem
          66 111 246 115 vstem
          409 -147 rmoveto
          45 89 -201 85 rlineto
          160 81 125 150 164 vvcurveto
          125 -66 87 -131 -217 -118 -256 -250 90 vhcurveto
          96 35 rlineto
          222 -49 71 154 111 hhcurveto
          61 37 -39 -82 -142 -113 -149 -171 -65 hvcurveto
          -27 -81 rlineto
          endchar
        
                </CharString>
                <CharString name="R">
                    20 callgsubr
          hintmask 10011000
          372 -8 -63 callsubr
        
                </CharString>
                <CharString name="R_p">
                    -154 -21 187 -21 24 -21 27 -21 27 -21 488 -20 26 -20 30 -20 134 -20 hstemhm
          375 72 hintmask 1010000111000000
          167 -6 rmoveto
          hintmask 1000100111000000
          86 12 -36 267 rlineto
          67 63 46 84 84 vvcurveto
          90 -59 46 -148 -20 vhcurveto
          hintmask 1001000111000000
          68 callgsubr
          82 hlineto
          45 224 13 3 rlineto
          187 -394 rmoveto
          hintmask 1010000111000000
          4 19 23 123 4 19 rrcurveto
          hintmask 1100000111000000
          -2 9 9 -1 7 hhcurveto
          111 75 239 164 82 -17 34 -32 -26 -28 -22 -30 -24 hvcurveto
          hintmask 1000101011000000
          6 42 rlineto
          hintmask 1000110011000000
          -75 -6 -9 -56 -97 -504 -21 -109 rlinecurve
          endchar
        
                </CharString>
                <CharString name="Racute">
                    20 callgsubr
          hintmask 00111000
          221 735 -107 callgsubr
          hintmask 10011000
          151 -743 -63 callsubr
        
                </CharString>
                <CharString name="Rcaron">
                    20 callgsubr
          hintmask 00111000
          351 683 -89 callgsubr
          hintmask 10011000
          28 -691 -63 callsubr
        
                </CharString>
                <CharString name="Rcommaaccent">
                    21 callsubr
          167 132 115 111 hintmask 10011100
          372 -8 rmoveto
          hintmask 00111100
          -29 callsubr
          hintmask 01011100
          -46 callgsubr
          -110 -548 -98 callsubr
        
                </CharString>
                <CharString name="S">
                    6 callgsubr
          522 455 -73 callsubr
        
                </CharString>
                <CharString name="Sacute">
                    6 callgsubr
          245 740 -107 callgsubr
          277 -285 -73 callsubr
        
                </CharString>
                <CharString name="Scaron">
                    6 callgsubr
          376 688 -89 callgsubr
          153 -233 -73 callsubr
        
                </CharString>
                <CharString name="Scedilla">
                    -66 153 -94 94 -92 92 24 callgsubr
          22 93 17 115 hintmask 10011110
          245 -188 rmoveto
          93 2 rlineto
          hintmask 00111110
          6 96 -28 60 -43 25 rrcurveto
          hintmask 00111010
          139 17 58 70 70 -31 callsubr
          97 19 rlineto
          -17 callsubr
          hintmask 01011010
          -18 callsubr
          hintmask 10011010
          -22 -108 rlineto
          hintmask 01011010
          49 -10 44 -6 40 -3 rrcurveto
          hintmask 10011110
          -36 -22 -32 -45 -29 -71 12 callsubr
        
                </CharString>
                <CharString name="Scommaaccent">
                    9 callgsubr
          -76 132 76 115 hintmask 10110100
          522 455 -50 callsubr
          hintmask 01110100
          -22 -108 rlineto
          hintmask 10110100
          -40 callsubr
          hintmask 10101100
          -316 -706 -98 callsubr
        
                </CharString>
                <CharString name="T">
                    86 callsubr
          94 488 vstem
          385 525 -7 callgsubr
          endchar
        
                </CharString>
                <CharString name="Tcaron">
                    86 callsubr
          94 488 vstem
          358 676 -89 callgsubr
          34 -151 -7 callgsubr
          endchar
        
                </CharString>
                <CharString name="Tcommaaccent">
                    86 callsubr
          149 132 vstem
          385 525 -7 callgsubr
          -172 -261 -98 callsubr
        
                </CharString>
                <CharString name="Thorn">
                    0 190 -169 -21 442 92 -92 178 hstemhm
          418 109 hintmask 01011000
          152 hmoveto
          18 92 rlineto
          224 25 133 98 145 vvcurveto
          hintmask 01101000
          102 -79 75 -191 -3 vhcurveto
          hintmask 01011000
          17 86 rlineto
          59 callgsubr
          68 callgsubr
          376 341 rmoveto
          hintmask 10011000
          -91 -80 -67 -149 7 vhcurveto
          49 249 rlineto
          hintmask 01011000
          120 16 60 -42 -72 vvcurveto
          endchar
        
                </CharString>
                <CharString name="U">
                    7 callgsubr
          182 230 -105 callsubr
        
                </CharString>
                <CharString name="Uacute">
                    7 callgsubr
          235 -72 callsubr
          -53 -498 -105 callsubr
        
                </CharString>
                <CharString name="Ubreve">
                    36 callsubr
          86 84 27 callgsubr
          530 870 -103 callgsubr
          -409 -603 -105 callsubr
        
                </CharString>
                <CharString name="Ucircumflex">
                    7 callgsubr
          488 -32 callsubr
          -208 -555 -105 callsubr
        
                </CharString>
                <CharString name="Udieresis">
                    36 callsubr
          96.5 135 27 callgsubr
          527 -44 callgsubr
          -12 -466 -105 callsubr
        
                </CharString>
                <CharString name="Ugrave">
                    7 callgsubr
          513 -24 callgsubr
          -307 -447 -105 callsubr
        
                </CharString>
                <CharString name="Uhungarumlaut">
                    7 callgsubr
          251 684 -77 callgsubr
          -235 -489 -105 callsubr
        
                </CharString>
                <CharString name="Umacron">
                    36 callsubr
          122 89 27 callgsubr
          564 811 -48 callsubr
          -365 -492 -105 callsubr
        
                </CharString>
                <CharString name="Uogonek">
                    54 callsubr
          125 95 -74 -21 633 -20 hstemhm
          63 113 -70 97 hintmask 10011010
          351 -168 rmoveto
          hintmask 01011010
          35 callgsubr
          33 41 28 114 58 vhcurveto
          62 32 41 62 20 100 80 413 rcurveline
          59 callgsubr
          -80 -415 rlineto
          hintmask 01101100
          -59 callgsubr
          -43 callgsubr
          -33 -165 62 -74 115 -10 rlinecurve
          hintmask 10011010
          -75 -41 -35 -43 -40 63 callgsubr
          endchar
        
                </CharString>
                <CharString name="Uring">
                    36 callsubr
          73 214 27 callgsubr
          395 887 -57 callsubr
          -213 -657 -105 callsubr
        
                </CharString>
                <CharString name="V">
                    0 101 519 99 callgsubr
          100 111 hintmask 10110000
          304 hmoveto
          hintmask 11010000
          103 206 98 208 91 206 rrcurveto
          100 callgsubr
          -73 -172 -80 -174 -80 -173 rrcurveto
          -9 hlineto
          hintmask 10110000
          -13 173 -12 178 -6 172 -111 -8 rcurveline
          10 -206 17 -204 22 -206 rrcurveto
          endchar
        
                </CharString>
                <CharString name="W">
                    -19 callsubr
          311 hmoveto
          -91 callsubr
        
                </CharString>
                <CharString name="Wacute">
                    -19 callsubr
          237 -72 callsubr
          74 -728 rmoveto
          -91 callsubr
        
                </CharString>
                <CharString name="Wcircumflex">
                    -19 callsubr
          490 -32 callsubr
          -81 -785 rmoveto
          -91 callsubr
        
                </CharString>
                <CharString name="Wdieresis">
                    0 150 -129 11 callgsubr
          96.5 135 hstemhm
          302.5 59 hintmask 01111000
          530 -44 callgsubr
          114 -696 rmoveto
          -28 callsubr
          hintmask 10111000
          -89 callsubr
        
                </CharString>
                <CharString name="Wgrave">
                    -19 callsubr
          515 -24 callgsubr
          -180 -677 rmoveto
          -91 callsubr
        
                </CharString>
                <CharString name="X">
                    18 -21 24 -21 24 -21 617 78 callsubr
          -13 610 hintmask 10001100
          361 -3 rmoveto
          hintmask 00110100
          115 6 -120 299 241 318 rlineto
          -121 hlineto
          -165 -235 rlineto
          hintmask 01001100
          -90 238 -115 -6 120 -300 -239 -317 rlineto
          120 hlineto
          165 234 rlineto
          endchar
        
                </CharString>
                <CharString name="Y">
                    4 callgsubr
          285 hmoveto
          -61 callgsubr
        
                </CharString>
                <CharString name="Yacute">
                    4 callgsubr
          230 730 -107 callgsubr
          55 -730 rmoveto
          -61 callgsubr
        
                </CharString>
                <CharString name="Ycircumflex">
                    4 callgsubr
          484 681 -81 callsubr
          -101 -787 rmoveto
          -61 callgsubr
        
                </CharString>
                <CharString name="Ydieresis">
                    -11 callgsubr
          96.5 135 hstemhm
          96 507 hintmask 10111000
          523 701 -102 callsubr
          95 -698 rmoveto
          39 200 rlineto
          hintmask 11011000
          -10 callsubr
          hintmask 10111000
          -23 callgsubr
        
                </CharString>
                <CharString name="Ygrave">
                    4 callgsubr
          508 723 -94 callsubr
          -199 -679 rmoveto
          -61 callgsubr
        
                </CharString>
                <CharString name="Z">
                    76 callgsubr
          538 vstem
          442 hmoveto
          -47 callgsubr
        
                </CharString>
                <CharString name="Zacute">
                    76 callgsubr
          538 vstem
          230 -72 callsubr
          212 -728 rmoveto
          -47 callgsubr
        
                </CharString>
                <CharString name="Zcaron">
                    76 callgsubr
          556 vstem
          360 676 -89 callgsubr
          89 -676 rmoveto
          -47 callgsubr
        
                </CharString>
                <CharString name="Zdotaccent">
                    0 96 428 96 1 callsubr
          17 538 vstem
          414 698 -49 callgsubr
          144 -697 rmoveto
          -47 callgsubr
        
                </CharString>
                <CharString name="a">
                    55 callsubr
          hintmask 10101100
          202 89 -52 callgsubr
        
                </CharString>
                <CharString name="aacute">
                    -34 callsubr
          212 -20 2 callsubr
          230 616 -107 callgsubr
          hintmask 10101110
          -28 -527 -106 callsubr
        
                </CharString>
                <CharString name="abreve">
                    -34 callsubr
          86 84 2 callsubr
          525 758 -103 callgsubr
          hintmask 10101110
          -384 -632 -106 callsubr
        
                </CharString>
                <CharString name="acircumflex">
                    -34 callsubr
          135 -20 23 -20 -3 callsubr
          hintmask 01101011
          483 567 -66 callsubr
          hintmask 01100111
          14 callgsubr
          rlineto
          hintmask 10101011
          -26 callsubr
          -183 -584 -100 callgsubr
          hintmask 01010111
          -75 callgsubr
          hintmask 01100111
          -93 callsubr
          hintmask 01010111
          -36 callsubr
        
                </CharString>
                <CharString name="acute">
                    559 215 hstem
          148 297 vstem
          148 606 -107 callgsubr
          endchar
        
                </CharString>
                <CharString name="adieresis">
                    -34 callsubr
          96.5 135 2 callsubr
          522 587 -102 callsubr
          hintmask 10101110
          13 -495 -106 callsubr
        
                </CharString>
                <CharString name="ae">
                    89 callsubr
          92 callsubr
          hintmask 10101110
          522 60 29 callgsubr
          hintmask 10011110
          85 callgsubr
          hintmask 10101110
          11 callsubr
          hintmask 01011110
          13 callgsubr
          hintmask 01101110
          41 callsubr
          hintmask 01011110
          96 callgsubr
        
                </CharString>
                <CharString name="aeacute">
                    89 callsubr
          189 -20 92 callsubr
          hintmask 10101111
          228 613 -107 callgsubr
          294 -553 29 callgsubr
          hintmask 10011111
          85 callgsubr
          hintmask 10101111
          11 callsubr
          hintmask 01011111
          13 callgsubr
          hintmask 01101111
          41 callsubr
          hintmask 01011111
          96 callgsubr
        
                </CharString>
                <CharString name="agrave">
                    -34 callsubr
          215 -20 2 callsubr
          508 609 -94 callsubr
          hintmask 10101110
          -282 -476 -106 callsubr
        
                </CharString>
                <CharString name="amacron">
                    -34 callsubr
          122 89 2 callsubr
          559 699 -48 callsubr
          hintmask 10101110
          -340 -521 -106 callsubr
        
                </CharString>
                <CharString name="ampersand">
                    -9 95 554 -20 hstem
          14 104 vstem
          437 -20 rmoveto
          89 65 -42 46 -35 43 -30 43 rlinecurve
          39 48 39 58 40 68 -88 31 rcurveline
          -26 -51 -26 -44 -25 -37 -29 53 -19 51 -10 50 rrcurveto
          63 60 36 65 47 vvcurveto
          40 -30 24 -44 -62 -70 -77 -114 -9 0 -9 1 -10 vhcurveto
          -133 -107 -61 -103 -92 vvcurveto
          -78 43 -50 80 64 70 34 70 74 vhcurveto
          27 -38 31 -39 34 -38 rrcurveto
          -267 106 rmoveto
          -32 -20 20 39 53 39 63 69 68 hvcurveto
          15 -55 26 -56 34 -57 rrcurveto
          -53 -52 -45 -22 -34 hhcurveto
          endchar
        
                </CharString>
                <CharString name="aogonek">
                    -210 73 125 101 -80 -21 43 -21 31 41 336 90 0 -20 50 callsubr
          73 98 6 102 hintmask 1001110110000000
          465 -169 rmoveto
          -9 51 rlineto
          -99 -33 -38 14 32 vvcurveto
          38 50 48 147 60 vhcurveto
          hintmask 1001101101000000
          -65 callgsubr
          hintmask 1100010101000000
          -93 callsubr
          hintmask 1010010101000000
          -3 -42 7 -26 22 -12 rrcurveto
          hintmask 1001010110000000
          -95 -53 -35 -49 -46 vvcurveto
          hintmask 1001110110000000
          -65 85 -43 159 77 vhcurveto
          hintmask 1100010101000000
          -263 258 -100 callgsubr
          endchar
        
                </CharString>
                <CharString name="approxequal">
                    95 93 3 93 31 93 3 93 -4 -20 hstemhm
          26 511 hintmask 10101100
          375 315 rmoveto
          62 42 49 104 58 85 callsubr
          hintmask 10010100
          -42 -30 96 -79 hhcurveto
          -64 -49 -53 -106 -59 hvcurveto
          58 -32 rlineto
          58 37 29 40 25 hhcurveto
          hintmask 10101100
          45 33 -96 79 hhcurveto
          -43 -220 rmoveto
          62 42 49 104 59 85 callsubr
          hintmask 01101100
          -42 -31 96 -77 hhcurveto
          -65 -50 -54 -105 -59 hvcurveto
          60 -31 rlineto
          57 37 28 40 25 hhcurveto
          hintmask 10101100
          45 32 -96 79 hhcurveto
          endchar
        
                </CharString>
                <CharString name="aring">
                    -34 callsubr
          73 214 2 callsubr
          390 775 -57 callsubr
          hintmask 10101110
          -188 -686 -106 callsubr
        
                </CharString>
                <CharString name="aringacute">
                    55 callsubr
          hintmask 01101100
          284 858 -107 callgsubr
          106 -83 -57 callsubr
          hintmask 10101100
          -188 -686 -52 callgsubr
        
                </CharString>
                <CharString name="asciicircum">
                    503 -20 hstem
          44 465 vstem
          423 148 rmoveto
          86 55 -189 300 -21 -3 -255 -296 67 -57 181 214 rlineto
          endchar
        
                </CharString>
                <CharString name="asciitilde">
                    191 99 30 99 hstemhm
          31 515 hintmask 10100000
          374 191 rmoveto
          65 52 69 125 55 hvcurveto
          -66 29 rlineto
          -73 -34 -33 -51 -26 hhcurveto
          hintmask 11100000
          -45 -54 129 -81 hhcurveto
          -66 -58 -74 -120 -52 hvcurveto
          66 -29 rlineto
          73 33 32 51 27 hhcurveto
          hintmask 10100000
          45 57 -129 83 hhcurveto
          endchar
        
                </CharString>
                <CharString name="asterisk">
                    506 -20 136 -20 hstem
          97 448 vstem
          358 232 rmoveto
          65 26 -31 150 153 30 -3 68 -153 18 19 153 -69 19 -65 -141 -137 67 -40 -58 115 -107 -105 -110 43 -54 135 74 rlineto
          endchar
        
                </CharString>
                <CharString name="asterisk.alt">
                    700 -20 hstem
          78 470 vstem
          360 537 rmoveto
          58 138 -95 25 -15 -151 rlineto
          -34 -7 rmoveto
          -91 118 -69 -70 123 -88 rlineto
          163 -44 rmoveto
          148 21 -26 95 -139 -62 rlineto
          -157 -42 rmoveto
          -148 -21 26 -95 139 62 rlineto
          110 -30 rmoveto
          92 -118 69 70 -124 88 rlineto
          -124 -35 rmoveto
          -57 -139 96 -25 13 151 rlineto
          endchar
        
                </CharString>
                <CharString name="at">
                    -156 82 139.5 80.5 256 80 122 81 hstemhm
          37 89 89 91 93 87 -15 92 hintmask 11111101
          415 -145 rmoveto
          13 83 rlineto
          -222 -42 -80 72 173 vvcurveto
          241 135 222 133 63 22 -45 -80 -11 vhcurveto
          2 -14 -14 1 -12 hhcurveto
          -134 -79 -158 -142 -85 31 -40 43 hvcurveto
          hintmask 11111110
          35 41 26 35 37 hvcurveto
          -6 -52 90 -1 9 61 10 61 10 51 rlinecurve
          38 187 rlineto
          hintmask 11111101
          168 34 -50 92 -127 hhcurveto
          -209 -164 -272 -280 -212 107 -116 271 50 hvcurveto
          -77 291 rmoveto
          -18 -14 18 42 82 47 114 42 12 23 -4 -8 21 hvcurveto
          -41 -211 rlineto
          -21 -25 -29 -12 -18 hhcurveto
          endchar
        
                </CharString>
                <CharString name="atilde">
                    -34 callsubr
          90 82 -44 -20 75 81 -3 callsubr
          hintmask 0110101110000000
          458 660 rmoveto
          hintmask 0110011110000000
          -64 callsubr
          hintmask 0110101110000000
          -64 callgsubr
          hintmask 1010011110000000
          -256 -571 -100 callgsubr
          hintmask 0101011110000000
          -75 callgsubr
          hintmask 0110011110000000
          -93 callsubr
          hintmask 0101011110000000
          -36 callsubr
        
                </CharString>
                <CharString name="b">
                    -12 91 334 99 193 -20 hstem
          403 106 vstem
          200 -12 rmoveto
          189 120 176 180 112 -47 56 -63 -53 -64 -41 -53 -56 hvcurveto
          56 287 -107 -8 -132 -681 rlineto
          -15 47 61 -13 49 hhcurveto
          54 91 rmoveto
          -22 -33 5 11 -35 hvcurveto
          47 243 rlineto
          41 43 52 34 37 hhcurveto
          32 28 -29 -67 -115 -69 -123 -80 hvcurveto
          endchar
        
                </CharString>
                <CharString name="backslash">
                    -193 920 hstem
          95 360 vstem
          184 727 rmoveto
          -89 -28 270 -892 90 29 rlineto
          endchar
        
                </CharString>
                <CharString name="bar">
                    -161 -21 hstem
          137 276 vstem
          311 710 rmoveto
          -174 -892 rlineto
          101 hlineto
          175 895 rlineto
          endchar
        
                </CharString>
                <CharString name="braceleft">
                    -211 940 hstemhm
          97 83 callsubr
          357 -211 -59 callsubr
        
                </CharString>
                <CharString name="braceleft.cap">
                    -162 940 hstemhm
          107 83 callsubr
          367 -162 -59 callsubr
        
                </CharString>
                <CharString name="braceright">
                    -211 941 hstemhm
          191 83 callgsubr
          15 -211 -58 callsubr
        
                </CharString>
                <CharString name="braceright.cap">
                    699 -20 hstemhm
          201 83 callgsubr
          25 -162 -58 callsubr
        
                </CharString>
                <CharString name="bracketleft">
                    -179 82 callgsubr
          55 488 vstem
          55 -179 18 callsubr
        
                </CharString>
                <CharString name="bracketleft.cap">
                    -130 82 callgsubr
          65 488 vstem
          65 -130 18 callsubr
        
                </CharString>
                <CharString name="bracketright">
                    -178 82 callgsubr
          3 488 vstem
          491 698 19 callgsubr
        
                </CharString>
                <CharString name="bracketright.cap">
                    -129 82 callgsubr
          13 488 vstem
          501 747 19 callgsubr
        
                </CharString>
                <CharString name="breve">
                    564 84 hstem
          100 392 vstem
          431 748 -103 callgsubr
          endchar
        
                </CharString>
                <CharString name="bullet">
                    158 280 hstem
          147 269 vstem
          416 315 rmoveto
          72 -51 51 -73 -74 -71 -62 -94 -72 54 -52 68 75 72 62 95 vhcurveto
          endchar
        
                </CharString>
                <CharString name="bullet.alt">
                    178 241 hstem
          140 289 vstem
          381 178 rmoveto
          48 241 rlineto
          -240 hlineto
          -49 -241 rlineto
          endchar
        
                </CharString>
                <CharString name="c">
                    82 callsubr
          77 callgsubr
          500 328 -76 callgsubr
        
                </CharString>
                <CharString name="cacute">
                    82 callsubr
          192 -20 77 callgsubr
          218 619 -107 callgsubr
          282 -291 -76 callgsubr
        
                </CharString>
                <CharString name="caron">
                    701 69 callgsubr
          120 369 hintmask 01100000
          276 554 rmoveto
          hintmask 10100000
          213 147 rlineto
          hintmask 01100000
          -81 callgsubr
          endchar
        
                </CharString>
                <CharString name="caron.alt">
                    547 257 hstem
          281 118 vstem
          281 800 -30 callgsubr
          endchar
        
                </CharString>
                <CharString name="ccaron">
                    82 callsubr
          77 callgsubr
          349 567 -89 callgsubr
          158 -239 -76 callgsubr
        
                </CharString>
                <CharString name="ccedilla">
                    -66 147 -87 87 338 92 hstemhm
          59 107 101 93 42 98 hintmask 10111100
          360 -186 rmoveto
          hintmask 01111100
          6 94 -27 59 -41 27 48 7 55 18 63 29 -10 56 rcurveline
          -38 callsubr
          98 1 rlineto
          -21 callgsubr
          -91 42 -71 86 -21 hvcurveto
          hintmask 10111100
          -38 -22 -34 -46 -30 -73 12 callsubr
        
                </CharString>
                <CharString name="cdotaccent">
                    82 callsubr
          1 callsubr
          59 107 236 98 vstem
          403 589 -49 callgsubr
          213 -260 -76 callgsubr
        
                </CharString>
                <CharString name="cedilla">
                    -177 198 -175 -21 120 76 hstemhm
          287 93 hintmask 01110000
          160 -152 rmoveto
          10 callgsubr
          93 2 rlineto
          hintmask 10010000
          133 8 -57 63 -71 hhcurveto
          -61 -50 -49 -106 -44 hvcurveto
          endchar
        
                </CharString>
                <CharString name="cent">
                    26 95 263 103 133 -20 hstem
          68 101 vstem
          169 261 rmoveto
          55 30 47 104 17 vhcurveto
          -50 -225 rlineto
          -61 25 -23 36 45 vvcurveto
          257 -235 rmoveto
          17 95 -46 2 -39 5 -32 6 rlinecurve
          56 253 30 1 35 -1 40 -3 rlinecurve
          19 103 -35 3 -32 0 -30 -1 rlinecurve
          29 131 rlineto
          -95 hlineto
          -28 -140 rlineto
          -182 -33 -65 -109 -96 vvcurveto
          -80 50 -64 102 -37 vhcurveto
          -34 -145 rlineto
          96 hlineto
          25 122 36 -6 39 -4 44 -2 rlinecurve
          endchar
        
                </CharString>
                <CharString name="check.1">
                    -16 139 -118 -21 649 -20 hstemhm
          61 525 hintmask 01110000
          586 633 rmoveto
          -104 46 93 callgsubr
          -104 -163 -89 -193 -70 -200 rrcurveto
          -6 hlineto
          -53 255 -99 -30 88 -363 94 -1 rlineto
          hintmask 01110000
          97 243 114 209 132 197 rrcurveto
          endchar
        
                </CharString>
                <CharString name="check.2">
                    13 -21 22 -21 35 -21 626 -20 hstemhm
          16 556 hintmask 01011000
          282 -7 rmoveto
          hintmask 00111000
          106 14 -88 259 272 367 -98 48 -209 -321 -49 164 -103 -27 78 -226 rlineto
          hintmask 10011000
          -175 -249 67 -30 141 191 rlineto
          endchar
        
                </CharString>
                <CharString name="circumflex">
                    616 -20 hstem
          98 369 vstem
          394 557 -81 callsubr
          endchar
        
                </CharString>
                <CharString name="colon">
                    0 141 180 141 hstem
          155 232 51 callgsubr
          72 -321 95 callgsubr
          -28 -141 rlineto
          endchar
        
                </CharString>
                <CharString name="colon.alt">
                    78 141 180 141 hstem
          171 231 vstem
          375 399 95 callgsubr
          -27 -141 rlineto
          73 -321 rmoveto
          27 141 80 callsubr
          hlineto
          -27 -141 rlineto
          endchar
        
                </CharString>
                <CharString name="colonmonetary">
                    502 97 hstem
          58 97 vstem
          317 138 rmoveto
          -23 6 -21 6 -18 7 86 320 rcurveline
          22 5 24 5 26 4 rrcurveto
          -258 -205 rmoveto
          66 27 60 88 40 vhcurveto
          -71 -263 rlineto
          -30 24 -14 31 42 vvcurveto
          99 -360 rmoveto
          75 hlineto
          28 105 20 -3 22 -3 23 -3 rlinecurve
          39 91 -30 4 -27 4 -25 4 rlinecurve
          101 373 24 2 27 1 28 1 rlinecurve
          11 97 -21 -1 -20 -1 -19 -1 rlinecurve
          27 97 rlineto
          -75 hlineto
          -28 -106 -23 -3 -22 -4 -21 -5 rlinecurve
          32 118 rlineto
          -75 hlineto
          -37 -141 rlineto
          -175 -62 -55 -112 -110 vvcurveto
          -80 35 -57 71 -40 vhcurveto
          -47 -165 rlineto
          75 hlineto
          37 136 18 -6 20 -6 21 -5 rlinecurve
          endchar
        
                </CharString>
                <CharString name="comma">
                    97 callgsubr
          185 137 vstem
          109 -136 rmoveto
          44 -24 109 91 58 89 2 126 rlinecurve
          -137 -4 8 -113 -14 -77 -70 -88 rlinecurve
          endchar
        
                </CharString>
                <CharString name="commaaccent">
                    -280 213 hstem
          206 132 vstem
          168 -261 -98 callsubr
        
                </CharString>
                <CharString name="commaaccent.rot">
                    568 213 hstem
          199 135 vstem
          369 762 42 callgsubr
          endchar
        
                </CharString>
                <CharString name="copyright">
                    7 57 84 67 190 68 83 57 hstem
          41 63 66 70 89 59 75 63 vstem
          319 613 rmoveto
          -155 -123 -151 -209 -158 91 -88 122 165 107 155 208 157 -86 86 -121 hvcurveto
          -8 -57 rmoveto
          86 66 -63 -134 -166 -77 -129 -123 -89 -70 66 133 168 92 125 115 hvcurveto
          4 -83 rmoveto
          -81 -64 -98 -107 -95 58 -52 118 41 hvcurveto
          11 63 rlineto
          -85 -25 -32 20 61 vvcurveto
          62 27 62 36 18 9 -17 -33 -1 vhcurveto
          59 1 rlineto
          78 4 -26 39 -51 hhcurveto
          endchar
        
                </CharString>
                <CharString name="d">
                    47 callgsubr
          hintmask 10101110
          206 89 -20 callgsubr
          hintmask 01011110
          30 callgsubr
          112 572 -107 -8 -37 -190 rlineto
          hintmask 10101110
          -15 callsubr
          hintmask 01011110
          51 callsubr
        
                </CharString>
                <CharString name="dagger">
                    448 61 callgsubr
          117 412 hintmask 01110000
          281 133 rmoveto
          hintmask 10110000
          85 322 146 -14 17 85 -142 14 33 149 -103 10 rlineto
          hintmask 01110000
          81 callsubr
          -74 -349 14 -10 rlineto
          endchar
        
                </CharString>
                <CharString name="daggerdbl">
                    249.5 84 114.5 61 callgsubr
          77 452 hintmask 10111000
          270 82 rmoveto
          45 175 157 -15 17 84 -153 15 rlineto
          hintmask 11011000
          29 114 147 -14 17 85 -143 14 34 149 -103 10 rlineto
          hintmask 10111000
          81 callsubr
          -24 -114 -149 15 -17 -86 148 -14 -43 -200 14 -11 rlineto
          endchar
        
                </CharString>
                <CharString name="dcaron">
                    47 callgsubr
          197 118 hintmask 01101111
          625 800 -30 callgsubr
          hintmask 10101111
          -537 -715 -5 callgsubr
          112 572 -107 -8 -37 -190 0 callgsubr
        
                </CharString>
                <CharString name="dcroat">
                    58 callgsubr
          84 68 66 -20 hstemhm
          41 106 178 103 hintmask 10101111
          206 89 -5 callgsubr
          86 437 rlineto
          63 hlineto
          13 69 rlineto
          -63 hlineto
          13 66 -107 -8 -11 -58 rlineto
          -128 hlineto
          -13 -68 rlineto
          128 hlineto
          -13 -64 0 callgsubr
        
                </CharString>
                <CharString name="degree">
                    301 81 219 80 hstem
          133 86 199 86 vstem
          336 681 rmoveto
          -106 -97 -83 -124 -106 71 -67 96 106 98 83 124 106 -71 67 -97 hvcurveto
          -25 -299 rmoveto
          -55 -37 42 58 71 47 48 60 55 37 -43 -58 -71 -47 -47 -60 hvcurveto
          endchar
        
                </CharString>
                <CharString name="dieresis">
                    574.5 135 hstem
          106 376 vstem
          439 577 -102 callsubr
          endchar
        
                </CharString>
                <CharString name="divide">
                    62 110 80 91 80 111 hstem
          55 460 vstem
          366 423 rmoveto
          23 111 rlineto
          -115 hlineto
          -23 -111 rlineto
          264 -80 rmoveto
          -442 hlineto
          -18 -91 rlineto
          441 hlineto
          -200 -190 rmoveto
          23 110 rlineto
          -114 hlineto
          -23 -110 rlineto
          endchar
        
                </CharString>
                <CharString name="dollar">
                    -75 192 386 86 hstem
          111 101 155 100 vstem
          212 461 rmoveto
          26 31 18 72 -2 vhcurveto
          -38 -124 rlineto
          -37 31 -28 27 24 vvcurveto
          155 -300 rmoveto
          -27 -33 -18 -72 1 vhcurveto
          38 128 rlineto
          38 -32 29 -28 -24 vvcurveto
          -147 -236 rmoveto
          28 104 rlineto
          160 4 59 62 62 vvcurveto
          65 -70 60 -66 54 vhcurveto
          49 160 35 -5 41 -8 47 -13 rlinecurve
          19 96 -36 8 -34 5 -30 4 rlinecurve
          36 111 rlineto
          -97 hlineto
          -31 -105 rlineto
          -158 -61 -63 -64 -63 68 -59 66 -52 hvcurveto
          -50 -167 -40 5 -47 9 -55 13 rlinecurve
          -21 -97 46 -9 41 -6 37 -3 rlinecurve
          -32 -108 rlineto
          endchar
        
                </CharString>
                <CharString name="dotaccent">
                    575.5 135 hstem
          204 159 vstem
          320 576 -49 callgsubr
          endchar
        
                </CharString>
                <CharString name="dotlessi">
                    19 callsubr
          483 49 -51 callgsubr
        
                </CharString>
                <CharString name="e">
                    -2 callsubr
          3 callgsubr
          480 58 -107 callsubr
        
                </CharString>
                <CharString name="eacute">
                    -2 callsubr
          192 -20 3 callgsubr
          221 620 -107 callgsubr
          259 -562 -107 callsubr
        
                </CharString>
                <CharString name="ebreve">
                    -2 callsubr
          66 84 3 callgsubr
          516 762 -103 callgsubr
          -97 -667 -107 callsubr
        
                </CharString>
                <CharString name="ecaron">
                    -2 callsubr
          3 callgsubr
          351 568 -89 callgsubr
          136 -510 -107 callsubr
        
                </CharString>
                <CharString name="ecircumflex">
                    -2 callsubr
          115 78 callsubr
          53 103 248 101 hintmask 11110110
          474 571 -66 callsubr
          hintmask 11101110
          14 callgsubr
          rlineto
          hintmask 11110110
          -26 callsubr
          104 -619 -107 callsubr
        
                </CharString>
                <CharString name="edieresis">
                    -2 callsubr
          63 callsubr
          53 103 248 101 vstem
          513 591 -102 callsubr
          300 -530 -107 callsubr
        
                </CharString>
                <CharString name="edotaccent">
                    -2 callsubr
          1 callsubr
          53 103 248 101 vstem
          405 590 -49 callgsubr
          191 -531 -107 callsubr
        
                </CharString>
                <CharString name="egrave">
                    -2 callsubr
          195 -20 3 callgsubr
          499 613 -94 callsubr
          5 -511 -107 callsubr
        
                </CharString>
                <CharString name="eight">
                    -12 84 422 -20 65 91 -4 -20 hstemhm
          43 102 -18 100 134 97 hintmask 11100110
          458 154 rmoveto
          65 -53 58 -56 53 vhcurveto
          49 29 61 33 74 40 -32 62 rcurveline
          -82 -43 -67 -37 -56 -33 rrcurveto
          -39 37 -30 35 32 vvcurveto
          44 50 31 163 -36 vhcurveto
          hintmask 11010110
          30 102 rlineto
          hintmask 11100110
          -221 25 -122 -83 -98 vvcurveto
          -53 37 -47 45 -43 vhcurveto
          hintmask 11101010
          -135 -89 -31 -54 -59 vvcurveto
          -81 72 -56 115 vhcurveto
          hintmask 11100110
          133 95 76 90 hvcurveto
          -205 -82 rmoveto
          hintmask 11101010
          -59 -49 26 49 30 17 33 101 67 hvcurveto
          52 -46 46 -43 -41 vvcurveto
          hintmask 11100110
          -43 -46 -32 -62 vhcurveto
          endchar
        
                </CharString>
                <CharString name="eight.den">
                    1 callgsubr
          hstemhm
          53 26 callsubr
          hintmask 10110110
          356 -109 -60 callgsubr
        
                </CharString>
                <CharString name="eight.inf">
                    -160 64 282 69 hstemhm
          65 26 callsubr
          hintmask 11011000
          368 -49 -60 callsubr
        
                </CharString>
                <CharString name="eight.num">
                    415 64 155 -20 21 -20 146 69 hstemhm
          165 26 callsubr
          hintmask 10110110
          468 526 -60 callgsubr
        
                </CharString>
                <CharString name="eight.small">
                    -10 64 282 69 hstemhm
          88 26 callsubr
          hintmask 11011000
          391 101 -60 callsubr
        
                </CharString>
                <CharString name="eight.sup">
                    318 64 257 -20 45 69 hstemhm
          145 26 callsubr
          hintmask 10101100
          448 429 rmoveto
          41 -36 36 -39 32 vhcurveto
          hintmask 11101100
          -27 callsubr
          hintmask 10101100
          -94 callgsubr
          8 callgsubr
          hintmask 10110100
          -44 callsubr
          hintmask 10101100
          26 callgsubr
          hintmask 10110100
          -86 callgsubr
        
                </CharString>
                <CharString name="ellipsis">
                    0 146 hstem
          -2 145 38 145 38 145 cntrmask 01110000
          476 37 callsubr
          -71 37 callsubr
          -71 37 callsubr
          endchar
        
                </CharString>
                <CharString name="emacron">
                    -2 callsubr
          102 89 3 callgsubr
          550 703 -48 callsubr
          -53 -556 -107 callsubr
        
                </CharString>
                <CharString name="emdash">
                    255 85 hstem
          64 462 vstem
          526 340 rmoveto
          -446 hlineto
          -16 -85 rlineto
          446 hlineto
          endchar
        
                </CharString>
                <CharString name="endash">
                    255 85 hstem
          72 425 vstem
          497 340 rmoveto
          -409 hlineto
          -16 -85 rlineto
          409 hlineto
          endchar
        
                </CharString>
                <CharString name="eogonek">
                    54 callsubr
          129 90 104 59 180 88 hstemhm
          53 103 16 98 134 101 hintmask 10111111
          418 -168 rmoveto
          hintmask 01111111
          35 callgsubr
          49 100 63 110 52 vhcurveto
          -12 55 rlineto
          hintmask 01111101
          -24 callsubr
          rrcurveto
          -82 callgsubr
          -118 75 -85 147 16 vhcurveto
          hintmask 10111111
          -72 -43 -31 -44 -41 vvcurveto
          -67 65 callsubr
          hintmask 01111101
          -87 592 -79 callsubr
        
                </CharString>
                <CharString name="equal">
                    145 88 callsubr
          522 456 rmoveto
          -411 hlineto
          -19 -91 rlineto
          412 hlineto
          -24 -129 rmoveto
          -412 hlineto
          -19 -91 rlineto
          412 hlineto
          endchar
        
                </CharString>
                <CharString name="eth">
                    -13 86 304 84 160 -20 hstem
          47 108 245 105 vstem
          237 -13 rmoveto
          154 114 132 195 92 -28 83 -53 77 hvcurveto
          87 25 -15 62 -113 -32 -27 32 -32 31 -35 30 rlinecurve
          -84 -54 27 -23 25 -23 21 -22 rlinecurve
          -113 -32 18 -62 140 40 19 -27 16 -27 12 -27 rlinecurve
          3 -18 -17 1 -16 hhcurveto
          -154 -118 -130 -150 -116 74 -78 116 hvcurveto
          20 86 rmoveto
          -63 -39 50 78 91 57 85 80 24 40 -7 -17 41 hvcurveto
          2 -17 1 -17 -17 vvcurveto
          -129 -55 -100 -88 vhcurveto
          endchar
        
                </CharString>
                <CharString name="exclam">
                    0 131 hstem
          151 276 vstem
          307 245 rmoveto
          10 46 98 338 12 48 rrcurveto
          -140 hlineto
          -8 -48 -35 -338 -9 -46 rrcurveto
          51 -245 rmoveto
          26 131 rlineto
          -135 hlineto
          -26 -131 rlineto
          endchar
        
                </CharString>
                <CharString name="exclamdown">
                    489 131 hstem
          137 276 vstem
          278 620 rmoveto
          -26 -131 rlineto
          135 hlineto
          26 131 rlineto
          -156 -245 rmoveto
          -10 -46 -98 -338 -12 -48 rrcurveto
          140 hlineto
          8 48 35 338 10 46 rrcurveto
          endchar
        
                </CharString>
                <CharString name="f">
                    -178 84 335.5 90 callsubr
          69 105 166 71 62 92 vstem
          411 14 rmoveto
          72 -39 79 -95 79 vhcurveto
          208 -5 16 87 -281 -1 rlineto
          149 50 84 119 75 41 callgsubr
          -135 -144 -173 -207 -74 hvcurveto
          -52 hlineto
          -16 -67 43 -16 rlineto
          -15 -61 -9 -63 -60 vvcurveto
          -160 65 -76 91 97 89 79 113 vhcurveto
          -147 -108 rmoveto
          -49 -41 39 119 50 6 51 10 51 hvcurveto
          105 -74 45 -78 -69 vvcurveto
          -54 -31 -35 -45 vhcurveto
          endchar
        
                </CharString>
                <CharString name="f.lig">
                    -150 84 307.5 90 callsubr
          70 105 165 71 62 92 vstem
          411 29 rmoveto
          67 -39 74 -93 74 vhcurveto
          206 -5 16 87 -283 -1 rlineto
          147 50 85 121 76 41 callgsubr
          -136 -145 -177 -203 -73 hvcurveto
          -51 hlineto
          -16 -67 42 -16 rlineto
          -14 -56 -8 -57 -54 vvcurveto
          -153 64 -72 91 97 89 73 106 vhcurveto
          -147 -95 rmoveto
          -49 -40 35 113 44 5 46 9 46 hvcurveto
          106 -70 45 -73 -62 vvcurveto
          -49 -31 -30 -45 vhcurveto
          endchar
        
                </CharString>
                <CharString name="five">
                    -3 98 -74 -21 527 93 hstemhm
          375 101 hintmask 10110000
          476 204 rmoveto
          73 -59 70 -184 39 vhcurveto
          32 141 rlineto
          241 hlineto
          27 93 rlineto
          -344 hlineto
          -69 -302 rlineto
          189 -32 66 -44 -54 vvcurveto
          -57 -72 -55 -243 25 vhcurveto
          hintmask 01110000
          -12 -101 93 callgsubr
          311 -26 117 121 109 vvcurveto
          endchar
        
                </CharString>
                <CharString name="five.den">
                    57 callgsubr
          hstem
          281 83 vstem
          364 -80 -104 callsubr
        
                </CharString>
                <CharString name="five.inf">
                    -151 97 callsubr
          293 83 vstem
          376 -20 -104 callsubr
        
                </CharString>
                <CharString name="five.num">
                    424 49 callsubr
          393 83 hintmask 10111000
          -23 callsubr
          hintmask 01111000
          -71 callgsubr
          hintmask 10111000
          -45 callsubr
        
                </CharString>
                <CharString name="five.small">
                    -1 97 callsubr
          316 83 vstem
          399 130 -104 callsubr
        
                </CharString>
                <CharString name="five.sup">
                    327 97 callsubr
          373 83 vstem
          456 458 -104 callsubr
        
                </CharString>
                <CharString name="fiveeighths">
                    31 callgsubr
          85 49 callsubr
          53 26 callsubr
          37 83 hintmask 1011110110111000
          -23 callsubr
          hintmask 1011101110111000
          -71 callgsubr
          hintmask 1011110110111000
          -43 callsubr
          -419 -284 -83 callgsubr
          hintmask 1101110110111000
          8 callgsubr
          hintmask 1011110111011000
          -44 callsubr
          hintmask 1011110110111000
          26 callgsubr
          hintmask 1011110111011000
          -86 callgsubr
        
                </CharString>
                <CharString name="fivesixths">
                    87 callgsubr
          241 68 85 49 callsubr
          62 68 callsubr
          20 83 hintmask 1111011111000000
          -23 callsubr
          hintmask 1110111111000000
          -71 callgsubr
          hintmask 1111011110000000
          -9 -75 rlineto
          hintmask 1111011111000000
          228 -17 84 75 73 vvcurveto
          hintmask 1111011110000000
          -419 -284 -71 callsubr
          137 -559 -101 callsubr
        
                </CharString>
                <CharString name="four">
                    0 214 -92 92 407 -20 26 -20 hstemhm
          41 466 hintmask 01011000
          481 122 rmoveto
          26 92 rlineto
          -67 hlineto
          40 205 -99 -8 -39 -197 rlineto
          -193 hlineto
          hintmask 01101000
          75 112 55 109 62 186 rrcurveto
          hintmask 01011000
          -113 6 -56 -186 -51 -116 -76 -133 rlinecurve
          -4 -70 rlineto
          283 hlineto
          hintmask 10011000
          -24 -122 rlineto
          98 hlineto
          hintmask 01011000
          24 122 rlineto
          endchar
        
                </CharString>
                <CharString name="four.den">
                    -136 70 hstem
          50 341 vstem
          371 -136 -96 callgsubr
        
                </CharString>
                <CharString name="four.inf">
                    -76 70 hstem
          62 341 vstem
          383 -76 -96 callgsubr
        
                </CharString>
                <CharString name="four.num">
                    499 70 hstem
          162 341 vstem
          483 499 -96 callgsubr
        
                </CharString>
                <CharString name="four.small">
                    0 144 -70 70 hstemhm
          85 341 hintmask 01100000
          406 74 rmoveto
          hintmask 10100000
          -84 callsubr
          hintmask 01100000
          -46 callsubr
          hintmask 10100000
          -14 -74 rlineto
          77 hlineto
          hintmask 01100000
          15 74 rlineto
          endchar
        
                </CharString>
                <CharString name="four.sup">
                    402 70 hstem
          142 341 vstem
          463 402 -96 callgsubr
        
                </CharString>
                <CharString name="fourfifths">
                    57 callgsubr
          86 68 160 70 hstem
          281 83 vstem
          483 499 -99 callsubr
          -382 -228 -73 callgsubr
        
                </CharString>
                <CharString name="fraction">
                    -160 917 hstem
          -51 659 vstem
          34 -160 rmoveto
          574 871 -84 46 -575 -872 rlineto
          endchar
        
                </CharString>
                <CharString name="fraction.afrc">
                    271 68 hstem
          57 450 vstem
          57 271 -71 callsubr
          endchar
        
                </CharString>
                <CharString name="g">
                    20 callsubr
          hstemhm
          48 106 190 84 hintmask 11101100
          220 124 -55 callgsubr
          hintmask 11011100
          -13 callgsubr
          hintmask 11101100
          -58 callgsubr
        
                </CharString>
                <CharString name="gbreve">
                    20 callsubr
          86 84 94 callsubr
          519 764 -103 callgsubr
          -360 -603 -70 callsubr
        
                </CharString>
                <CharString name="gcommaaccent">
                    20 callsubr
          hstemhm
          48 106 110 135 -55 84 hintmask 11101100
          434 778 42 callgsubr
          -214 -654 -50 callgsubr
          hintmask 11011010
          -18 callgsubr
          -13 callgsubr
          hintmask 11101010
          -68 callsubr
          hintmask 11011010
          17 callsubr
        
                </CharString>
                <CharString name="gdotaccent">
                    20 callsubr
          97.5 135 94 callsubr
          407 592 -49 callgsubr
          -71 -467 -70 callsubr
        
                </CharString>
                <CharString name="germandbls">
                    77 callsubr
          -89 85 532 88 hstemhm
          396 109 -97 110 hintmask 10011000
          213 -8 rmoveto
          218 -9 74 77 87 vvcurveto
          66 -49 66 -73 66 vhcurveto
          hintmask 00110100
          83 84 52 72 77 vvcurveto
          67 -44 60 -97 -129 -94 -95 -153 -30 vhcurveto
          -89 -457 rlineto
          107 hlineto
          90 463 rlineto
          104 20 42 50 54 hhcurveto
          40 20 -28 -37 -59 -44 -59 -105 -112 hvcurveto
          hintmask 01011000
          97 -85 40 -59 -43 vvcurveto
          -44 -48 -14 -124 12 vhcurveto
          endchar
        
                </CharString>
                <CharString name="grave">
                    555 223 hstem
          135 275 vstem
          410 599 -94 callsubr
          endchar
        
                </CharString>
                <CharString name="greater">
                    -22 633 hstem
          57 435 vstem
          102 -22 rmoveto
          373 251 17 91 -281 291 -74 -72 250 -249 -2 -11 -328 -216 rlineto
          endchar
        
                </CharString>
                <CharString name="greaterequal">
                    7 92 hstem
          23 480 vstem
          384 371 rmoveto
          -1 -7 -301 -134 20 -87 387 175 14 83 -303 207 -57 -79 rlineto
          309 -430 74 callgsubr
        
                </CharString>
                <CharString name="guillemotleft">
                    8 -21 526 69 callgsubr
          33 538 hintmask 10110000
          161 -13 8 callsubr
          hintmask 11010000
          56 callsubr
        
                </CharString>
                <CharString name="guillemotleft.cap">
                    507 99 callgsubr
          45 538 hintmask 01100000
          173 50 8 callsubr
          hintmask 10100000
          56 callsubr
        
                </CharString>
                <CharString name="guillemotright">
                    9 -21 22 -21 527 -20 hstemhm
          0 539 hintmask 10110000
          314 -12 32 callsubr
          hintmask 01110000
          16 callgsubr
        
                </CharString>
                <CharString name="guillemotright.cap">
                    51 528 hstem
          12 539 vstem
          326 51 32 callsubr
          16 callgsubr
        
                </CharString>
                <CharString name="guilsinglleft">
                    -22 541 hstem
          109 357 vstem
          298 -22 33 callsubr
        
                </CharString>
                <CharString name="guilsinglleft.cap">
                    499 -20 hstem
          121 357 vstem
          310 41 33 callsubr
        
                </CharString>
                <CharString name="guilsinglright">
                    -19 541 hstem
          78 358 vstem
          139 -19 28 callsubr
        
                </CharString>
                <CharString name="guilsinglright.cap">
                    512 -20 hstem
          90 358 vstem
          151 44 28 callsubr
        
                </CharString>
                <CharString name="h">
                    18 callgsubr
          194 -20 10 callsubr
          hintmask 10111000
          69 callsubr
          hintmask 01110100
          -3 callgsubr
          -59 -63 -35 -65 -64 vhcurveto
          57 294 -107 -8 -135 -697 rlineto
          105 hlineto
          63 327 rlineto
          54 53 47 28 35 hhcurveto
          30 13 -18 -32 hvcurveto
          hintmask 10111000
          -74 -60 -154 -7 callsubr
          endchar
        
                </CharString>
                <CharString name="hbar">
                    -11 92 -60 -21 407 101 63 68 -68 134 10 callsubr
          hintmask 10110100
          69 callsubr
          hintmask 10110010
          51 62 160 98 vvcurveto
          53 -22 45 -67 -59 -64 -35 -66 -64 vhcurveto
          32 164 rlineto
          128 hlineto
          14 68 rlineto
          -129 hlineto
          hintmask 10101100
          13 66 -107 -8 rlineto
          hintmask 01110010
          -11 -58 rlineto
          -63 hlineto
          -13 -69 rlineto
          62 hlineto
          -110 -570 rlineto
          105 hlineto
          63 323 rlineto
          55 53 47 29 35 hhcurveto
          30 13 -19 -31 hvcurveto
          hintmask 10110100
          -74 -60 -152 -7 callsubr
          endchar
        
                </CharString>
                <CharString name="hcoslug">
                    -100 75 5 10 -6 10 -4 11 -10 10 -9 7 0 12 -11 11 -7 15 -15 26 -25 26 -15 8 -8 15 -12 12 0 14 -9 10 -10 19 -9 11 2 8 -7 32 71.5 22.5 514 -20 hstemhm
          50 64 10 16 -3 8 5 40 -35 12 -1 12 14 10 -2 10 -10 42 -31 9 -1 7 3 12 -6 11 9 40 -29 13 -9 10 0 12 -4 11 -2 12 -5 16 18 11 10 8 hintmask 000000100000000000010110000010000010000010010000
          500 700 rmoveto
          -450 hlineto
          hintmask 100000000000000000011010000000100000001000000000
          -800 450 vlineto
          -300 396 rmoveto
          -17 11 -11 17 -16 vhcurveto
          9 13 5 12 12 vvcurveto
          18 -9 11 -13 -12 -8 -9 -13 vhcurveto
          49 -64 rmoveto
          12 -12 9 -12 9 -11 15 25 3 18 -17 17 -7 -7 -10 -9 -14 -9 rrcurveto
          -39 -93 rmoveto
          12 9 3 6 8 hvcurveto
          -21 27 -21 22 -14 13 rrcurveto
          -8 -8 -4 -11 -11 vvcurveto
          -23 17 -18 22 vhcurveto
          91 34 rmoveto
          -22 19 13 -9 15 hhcurveto
          15 9 9 13 8 hvcurveto
          5 -1 rlineto
          -44 -1 -27 -27 -32 hhcurveto
          -22 -17 8 26 -25 hvcurveto
          -23 -21 -25 -11 -32 hhcurveto
          -45 -36 30 40 31 21 24 40 13 hvcurveto
          -16 17 -7 13 22 vvcurveto
          32 31 32 51 46 25 -30 -26 -10 -2 -8 -5 -7 vhcurveto
          20 15 -8 -20 2 hvcurveto
          18 12 14 10 19 hhcurveto
          21 16 -15 -24 -23 -16 -17 -21 -14 -12 7 12 -6 hvcurveto
          -12 -7 -12 -10 -11 -15 rrcurveto
          hintmask 000000000000000000010000000000000100000000000000
          -72 -105 rmoveto
          -8 10 -5 -10 vlineto
          hintmask 000000000000000010000000000000000100000000000000
          -15 vlineto
          -3 1 -1 2 2 1 1 4 1 vhcurveto
          4 -1 rlineto
          -2 -7 -3 -3 -6 -6 -3 4 45 callsubr
          hintmask 000000000000000001000000000000010000000000000000
          15 -5 5 5 7 vlineto
          hintmask 000000000000000100000000100000000000000000000000
          -75 -21 32 callgsubr
          52 callgsubr
          22 hmoveto
          -4 callgsubr
          hintmask 000000000000001000000000000000000000000100000000
          132 -1 rmoveto
          0 6 -2 4 -3 -5 -1 -5 45 callsubr
          0 -6 1 -4 5 3 2 4 45 callsubr
          52 callgsubr
          -120 -9 rmoveto
          4 hlineto
          hintmask 000000000000000001000010000000000000000000000000
          19 -4 5 vlineto
          hintmask 000000000000000000010000000010000000000000000000
          13 -6 hlineto
          4 2 3 3 5 hhcurveto
          7 2 -5 -6 hvcurveto
          hintmask 000000000000000100000000000000010000000000000000
          -14 5 -5 vlineto
          hintmask 000000000010000000000000000010000000000000000000
          -17 5 3 hlineto
          hintmask 000000000000000001000000000010000000000000000000
          13 vlineto
          3 -1 3 -3 -3 -3 -3 -5 vhcurveto
          -11 3 -5 vlineto
          52 callgsubr
          -16 hlineto
          -71 5 rmoveto
          6 hlineto
          hintmask 000000000000000000100010000000000000000000000000
          31 -6 5 vlineto
          hintmask 000000000000000000010000001000000000000000000000
          38 hlineto
          hintmask 000000000000000001000000001000000000000000000000
          -15 -5 vlineto
          8 -2 -1 2 -6 hhcurveto
          -8 hlineto
          hintmask 000000000000000000100001000000000000000000000000
          -14 3 vlineto
          4 0 1 5 1 hvcurveto
          5 hlineto
          hintmask 000000000000000100000000100000000000000000000000
          -17 -5 vlineto
          5 -1 0 1 -4 hhcurveto
          -3 hlineto
          hintmask 000000000000000100000001000000000000000000000000
          -12 7 -5 vlineto
          52 callgsubr
          -23 hlineto
          hintmask 000000000000000010000000000000000100000000000000
          133 10 rmoveto
          5 hlineto
          -4 3 3 -3 3 hhcurveto
          3 1 2 1 hvcurveto
          hintmask 000000000000000000100000000000000100000000000000
          7 -18 -4 12 vvcurveto
          4 4 5 7 3 3 -1 -3 2 vhcurveto
          1 4 rlineto
          5 -10 -5 hlineto
          4 -3 -2 1 -3 hhcurveto
          -2 -2 -1 -2 hvcurveto
          hintmask 000000000010000000000000000000000000100000000000
          -5 18 2 -11 vvcurveto
          -5 -3 -4 -7 -5 -3 2 2 -2 vhcurveto
          -1 -3 rlineto
          -5 hlineto
          hintmask 000000000000000000100000000000000000100000000000
          38 38 rmoveto
          -5 5 hlineto
          hintmask 000000000000000000010000000000000000000100000000
          14 hlineto
          hintmask 000000000000000000100000000000000000000100000000
          -20 vlineto
          4 1 4 3 4 hhcurveto
          hintmask 000000000100000000000000000000000000000010000000
          7 0 5 -6 0 -9 0 -7 -3 -9 0 flex1
          -6 -3 2 4 -2 hvcurveto
          -3 -6 rlineto
          -4 hlineto
          hintmask 100000000000000000010000000000000000000010000000
          39 -6 rmoveto
          3 3 2 4 hvcurveto
          -3 7 -9 18 0 vvcurveto
          -3 5 18 -5 -4 hlineto
          7 -15 6 15 rlineto
          -4 5 13 -5 -4 hlineto
          hintmask 000000001000000000000000000000000000000010000000
          -10 -24 rlineto
          -7 -3 -4 -5 -6 hhcurveto
          -6 -3 3 4 3 2 2 3 hvcurveto
          hintmask 100000000000000000010000000000000000000010000000
          5 1 -5 -2 -2 hvcurveto
          hintmask 000000010000000000000000000000000000000000000000
          45 -24 rmoveto
          -6 -4 vlineto
          -2 -4 -2 -3 -3 -3 rrcurveto
          2 -2 2 -2 1 1 1 1 1 hflex1
          3 -1 rlineto
          -5 -1 -2 -4 -6 hhcurveto
          hintmask 100000000000000000000000000000000000000001000000
          -4 0 -2 2 -3 3 -3 -3 -4 -2 -6 flex1
          -7 -5 4 6 6 4 3 6 2 hvcurveto
          -3 3 -2 3 4 vvcurveto
          hintmask 000000000001000000000000000000000000000000100000
          5 4 6 9 6 4 -4 -5 -5 -3 -2 -5 -3 vhcurveto
          2 -2 4 -5 3 -3 2 2 2 3 1 2 rrcurveto
          -5 6 hlineto
          hintmask 000000000100000000000000000000000010000000000000
          -114 4 rmoveto
          11 4 hlineto
          -3 -2 2 2 2 1 1 0 hvcurveto
          0 -1 1 -2 -2 -2 -2 -6 vhcurveto
          hintmask 100000000000000000000000000000000000000000010000
          132 -13 rmoveto
          hintmask 000100000000000000000000000000000000000000010000
          15 9 8 11 vhcurveto
          hintmask 000100000000000000000000000000000000000000000000
          5 4 -2 -3 3 hvcurveto
          4 6 vlineto
          -16 -6 vlineto
          hintmask 000000100000000000000000000000000000000000000000
          9 -3 -2 3 -6 hhcurveto
          -6 -4 -5 -12 hvcurveto
          74 callsubr
          -11 4 -6 8 vhcurveto
          hintmask 000010000000000000000000000000000000000000000000
          6 3 6 6 1 hvcurveto
          6 hlineto
          hintmask 100000000000000000000000000000000000000000000000
          -10 -1 -6 -7 -11 hhcurveto
          hintmask 100000000000000000000000000000000000000000010000
          -13 -8 7 14 hvcurveto
          hintmask 000000100000000000000000000000000000000000100000
          -29 4 rmoveto
          2 1 2 3 3 vvcurveto
          3 -2 2 -3 -2 -2 -1 -3 -2 2 -3 3 -3 vhcurveto
          hintmask 010000000000000000000000000000000000010000000000
          -68 -11 rmoveto
          73 callsubr
          hintmask 100000000000000000000000000000000000010000000000
          -6 -1 -4 -5 -8 hhcurveto
          -10 -6 6 9 hvcurveto
          hintmask 000000000010000000000000000000000000010000000000
          10 7 6 8 11 4 -7 -10 -1 vhcurveto
          hintmask 010000000000000000000000000001000000000000000000
          -89 hmoveto
          73 callsubr
          75 callgsubr
          -6 -1 -4 -5 -8 hhcurveto
          hintmask 100000000000000000000000010000000000000000000000
          -10 -6 6 9 hvcurveto
          hintmask 000000000010000000000000010000000000000000000000
          10 7 6 8 vhcurveto
          hintmask 000000000010000000000000000000001000000000000000
          11 4 -7 -10 -1 hvcurveto
          hintmask 010000000000000000000010000001000000000000000000
          -63 2 32 callgsubr
          252 hmoveto
          74 callsubr
          43 callsubr
          hintmask 010000000000000000000010000001000000000000000000
          43 callgsubr
          hintmask 000001000000000000000000000001000000010000000000
          -138 2 rmoveto
          71 callgsubr
          -70 hmoveto
          71 callgsubr
          hintmask 010000000000000000000000000100000000000000000000
          -22 -2 rmoveto
          -4 callgsubr
          74 callsubr
          252 hmoveto
          -4 callgsubr
          75 callgsubr
          -208 -10 rmoveto
          4 hlineto
          hintmask 000001000000000000000000000000001000000000000000
          19 -5 5 5 1 vlineto
          hintmask 000000000000010000000000000000001000000000000000
          10 7 4 6 4 2 -1 -1 2 vhcurveto
          8 2 rlineto
          hintmask 010000000000000000000000000000000000100000000000
          -39 4 -5 vlineto
          hintmask 100000000000000000000000000000000010000000000000
          -17 5 4 hlineto
          hintmask 000001000000000000000000000000000010000000000000
          19 -11 vlineto
          hintmask 010000000000000000000000000000000010000000000000
          -19 4 -5 vlineto
          75 callgsubr
          -17 hlineto
          hintmask 100000000000000000000000000000000001000000000000
          69 5 rmoveto
          4 hlineto
          hintmask 000001000000000000000000000000000001000000000000
          19 -4 5 vlineto
          hintmask 000000000010000000000000000000000000000001000000
          13 -6 hlineto
          5 2 3 2 4 hhcurveto
          4 2 -2 -4 -3 -2 -2 -3 -2 -3 1 3 hvcurveto
          1 vlineto
          -1 -3 -3 -4 -1 hvcurveto
          hintmask 010000000000000000000000000000000000000001000000
          -12 6 -5 vlineto
          hintmask 100000000000000000000000000000000001000000000000
          -19 hlineto
          hintmask 100000000000000000000010000000000000000000000000
          -183 5 rmoveto
          6 hlineto
          hintmask 000000100000000000000010000000000000000000000000
          31 -6 5 vlineto
          hintmask 000000000000100000000001000000000000000000000000
          21 -5 -5 hlineto
          hintmask 000000100000000000000001000000000000000000000000
          -12 16 12 -5 5 vlineto
          hintmask 000000000000100000000000000100000000000000000000
          21 -5 -6 hlineto
          hintmask 010000000000000000000000000100000000000000000000
          -31 6 -5 vlineto
          hintmask 100000000000000000000001000000000000000000000000
          -21 5 5 hlineto
          hintmask 001000000000000000000001000000000000000000000000
          14 -16 vlineto
          hintmask 010000000000000000000001000000000000000000000000
          -14 5 -5 vlineto
          hintmask 100000000000000000000010000000000000000000000000
          -21 hlineto
          hintmask 001000000000000000000000000000000000000000100000
          234 7 rmoveto
          -2 2 -4 5 -4 4 rrcurveto
          -2 -2 -1 -2 -3 vvcurveto
          -4 3 -3 4 2 2 1 2 2 vhcurveto
          hintmask 100000000000000000000000000000000000000000000000
          111 -2 rmoveto
          0 -3 -2 -3 -4 -4 -2 3 45 callsubr
          0 3 2 3 4 4 2 -3 45 callsubr
          endchar
        
                </CharString>
                <CharString name="hungarumlaut">
                    561 234 hstem
          131 444 vstem
          177 562 -77 callgsubr
          endchar
        
                </CharString>
                <CharString name="hyphen">
                    251 93 hstem
          122 319 vstem
          441 344 rmoveto
          -301 hlineto
          -18 -93 rlineto
          302 hlineto
          endchar
        
                </CharString>
                <CharString name="i">
                    3 callsubr
          98.5 136.5 38 callgsubr
          60 callgsubr
          206 -525 -82 callsubr
        
                </CharString>
                <CharString name="iacute">
                    19 callsubr
          202 606 -107 callgsubr
          281 -557 -51 callgsubr
        
                </CharString>
                <CharString name="ibreve">
                    3 callsubr
          86 84 38 callgsubr
          498 748 -103 callgsubr
          -76 -662 -82 callsubr
        
                </CharString>
                <CharString name="icircumflex">
                    3 callsubr
          138 -20 38 callgsubr
          455 557 -81 callsubr
          126 -614 -82 callsubr
        
                </CharString>
                <CharString name="idieresis">
                    3 callsubr
          96.5 135 38 callgsubr
          495 577 -102 callsubr
          321 -525 -82 callsubr
        
                </CharString>
                <CharString name="igrave">
                    19 callsubr
          480 599 -94 callsubr
          27 -506 -51 callgsubr
        
                </CharString>
                <CharString name="imacron">
                    3 callsubr
          122 89 38 callgsubr
          531 689 -48 callsubr
          -31 -551 -82 callsubr
        
                </CharString>
                <CharString name="iogonek">
                    54 callsubr
          127 94 317 98 0 -20 98.5 136.5 27 callsubr
          -110 98 hintmask 01101110
          60 callgsubr
          hintmask 10101101
          134 -742 rmoveto
          hintmask 01101101
          91 callgsubr
          43 53 42 167 70 vhcurveto
          -10 56 rlineto
          hintmask 01101110
          -197 -41 -16 14 22 87 87 333 rcurveline
          -91 hlineto
          hintmask 01110110
          -49 callsubr
          -99 -27 24 -58 93 hhcurveto
          hintmask 10101101
          -69 -42 -29 -43 -41 vvcurveto
          -67 65 callsubr
          endchar
        
                </CharString>
                <CharString name="j">
                    -173 103 473 96 0 -20 97.5 139.5 hstemhm
          305 69.81 hintmask 10111000
          456 579 rmoveto
          42 140 -123 -6 -34 -139 rlineto
          -348 -747 rmoveto
          209 2 65 11 42 42 71 72 -65 146 118 398 -99 1 rcurveline
          hintmask 11011000
          -224 -47 8 -55 187 12 -75 -307 35 -124 -32 -33 rlinecurve
          -18 -18 -24 -2 -189 5 rrcurveto
          endchar
        
                </CharString>
                <CharString name="k">
                    70 callsubr
          411 116 hintmask 10011100
          381 -7 rmoveto
          hintmask 00111100
          12 callgsubr
          hintmask 01011100
          15 callgsubr
          endchar
        
                </CharString>
                <CharString name="kcommaaccent">
                    70 callsubr
          185 132 94 116 hintmask 10011110
          381 -7 rmoveto
          hintmask 00111110
          12 callgsubr
          hintmask 01011110
          15 callgsubr
          -77 -464 -98 callsubr
        
                </CharString>
                <CharString name="l">
                    70 callgsubr
          vstem
          -56 callsubr
          endchar
        
                </CharString>
                <CharString name="l.ultra">
                    -8 87 523 105 hstem
          104 109 214 99 vstem
          463 63 rmoveto
          -16 54 -134 -56 -73 2 -21 86 rlinecurve
          206 165 101 158 123 vvcurveto
          72 -39 40 -63 -149 -171 -240 -274 -212 137 -47 222 129 vhcurveto
          -77 539 rmoveto
          23 18 -17 -36 -75 -63 -121 -151 -139 hvcurveto
          217 98 171 75 vhcurveto
          endchar
        
                </CharString>
                <CharString name="lacute">
                    70 callgsubr
          vstem
          355 808 -107 callgsubr
          120 -745 -104 callgsubr
          endchar
        
                </CharString>
                <CharString name="lcaron">
                    70 callgsubr
          79 118 vstem
          617 800 -30 callgsubr
          -260 -741 -104 callgsubr
          endchar
        
                </CharString>
                <CharString name="lcommaaccent">
                    -9 87 524 105 hstemhm
          116 108 -43 132 126 99 hintmask 11101000
          -56 callsubr
          hintmask 11011000
          -254 -872 -98 callsubr
        
                </CharString>
                <CharString name="ldot">
                    -9 87 177 127 220 35 callsubr
          vstem
          -56 callsubr
          196 -347 rmoveto
          27 127 80 callgsubr
          -26 -127 rlineto
          endchar
        
                </CharString>
                <CharString name="less">
                    -22 633 hstem
          81 435 vstem
          471 611 rmoveto
          -374 -251 -16 -91 280 -291 74 72 -249 250 2 10 328 217 rlineto
          endchar
        
                </CharString>
                <CharString name="lessequal">
                    7 92 hstem
          23 495 vstem
          214 367 rmoveto
          304 157 -28 84 -383 -205 -17 -83 319 -176 52 82 -249 134 rlineto
          240 -261 74 callgsubr
        
                </CharString>
                <CharString name="lslash">
                    -9 87 524 105 72 76 hstemhm
          116 108 -103 71 247 99 hintmask 11101100
          121 716 rmoveto
          -43 28 -34 39 -31 vhcurveto
          56 68 rlineto
          -33 25 -19 16 16 vvcurveto
          48 187 25 252 -72 vhcurveto
          34 83 rlineto
          -310 81 -234 -57 -125 vvcurveto
          354 -653 -69 callsubr
          vhcurveto
          hintmask 11110100
          -25 callgsubr
          hvcurveto
          -39 callgsubr
          rrcurveto
          hintmask 11101100
          -13 callsubr
          hintmask 11110100
          -68 callgsubr
          endchar
        
                </CharString>
                <CharString name="m">
                    -9 79 -49 -21 406 103 -9 -20 29 -20 hstemhm
          269 86 16 102 -39 110 hintmask 10001110
          523 20 rmoveto
          -10 55 rlineto
          -31 -9 -9 3 14 vvcurveto
          hintmask 10001101
          50 71 218 89 vvcurveto
          46 -20 23 -39 -38 -45 -25 -50 -47 vhcurveto
          51 1 -19 24 -36 hhcurveto
          -33 -39 -22 -44 -40 hvcurveto
          hintmask 01010101
          3 23 3 28 1 6 -96 -6 rcurveline
          -24 -146 -22 -112 -46 -236 rrcurveto
          101 hlineto
          hintmask 01100101
          8 42 38 197 25 130 rrcurveto
          25 25 24 12 18 hhcurveto
          25 1 -25 -44 -9 hvcurveto
          -66 -337 rlineto
          77 hlineto
          72 370 rlineto
          24 26 23 12 17 hhcurveto
          16 5 -11 -18 hvcurveto
          hintmask 10001110
          -58 -63 -218 -62 vvcurveto
          -57 44 -7 108 45 vhcurveto
          endchar
        
                </CharString>
                <CharString name="macron">
                    600 89 hstem
          101 363 vstem
          464 689 -48 callsubr
          endchar
        
                </CharString>
                <CharString name="minus">
                    252 91 hstem
          70 430 vstem
          500 343 rmoveto
          -412 hlineto
          -18 -91 rlineto
          411 hlineto
          endchar
        
                </CharString>
                <CharString name="mu">
                    -155 -21 165 92 -90 98 -70 -21 500 99 callgsubr
          331 106 hintmask 11000110
          112 -168 rmoveto
          hintmask 10010110
          27 166 rlineto
          hintmask 10100110
          -5 12 13 -2 16 hhcurveto
          51 47 33 66 53 hvcurveto
          hintmask 11001010
          -12 -106 51 -33 152 90 -10 54 rcurveline
          -77 -27 -4 11 11 55 71 364 rcurveline
          -104 hlineto
          hintmask 10100110
          -54 callsubr
          -11 29 63 12 hvcurveto
          63 321 -107 -8 -130 -670 rlineto
          endchar
        
                </CharString>
                <CharString name="multiply">
                    503 -20 28 -20 hstemhm
          50 468 hintmask 01100000
          391 84 rmoveto
          78 64 -116 145 rlineto
          hintmask 10100000
          165 137 -58 73 -166 -137 rlineto
          hintmask 01100000
          -116 145 -78 -65 117 -145 -167 -138 60 -73 165 138 rlineto
          endchar
        
                </CharString>
                <CharString name="n">
                    46 callgsubr
          518 41 -53 callsubr
        
                </CharString>
                <CharString name="nacute">
                    58 callsubr
          222 -20 10 callsubr
          hintmask 10011100
          205 619 -107 callgsubr
          313 -578 -52 callsubr
          endchar
        
                </CharString>
                <CharString name="naira">
                    0 166 -145 -21 160.5 85 -81 85 -83.5 70 122.5 85.5 -81.5 86 -71 70 4.5 170 -2 69 callgsubr
          2 566 hintmask 0100100010010000
          207 452 rmoveto
          6 hlineto
          52 -215 -99 -2 rlineto
          hintmask 1000000100110000
          197 -69 rmoveto
          -49 211 96 1 -40 -212 rlineto
          -47 -166 rmoveto
          93 hlineto
          hintmask 0101001001010000
          32 164 65 1 17 85 -66 -1 22 113 65 1 17 86 -65 -1 33 172 rlineto
          -81 hlineto
          hintmask 0100100100110000
          -32 -172 -126 -1 -41 175 -99 -4 rlineto
          hintmask 0110010000110000
          -34 -174 rlineto
          -66 hlineto
          -16 -86 66 1 -22 -113 -66 -1 -17 -85 66 1 -31 -161 rlineto
          84 hlineto
          hintmask 0100100100110000
          31 165 130 2 rlineto
          endchar
        
                </CharString>
                <CharString name="ncaron">
                    46 callgsubr
          335 567 -89 callgsubr
          190 -526 -53 callsubr
        
                </CharString>
                <CharString name="ncommaaccent">
                    58 callsubr
          hstemhm
          157 132 32 112 -52 114 hintmask 10011100
          518 41 -52 callsubr
          -399 -313 -98 callsubr
        
                </CharString>
                <CharString name="nine">
                    4 -21 259 76 230 85 hstem
          88 98 226 100 vstem
          110 -17 rmoveto
          294 88 108 182 168 vvcurveto
          142 -79 70 -112 -127 -106 -92 -136 -159 159 -60 148 118 vhcurveto
          -32 -86 -85 -91 -192 -51 rrcurveto
          100 345 rmoveto
          70 45 57 71 58 52 -37 -113 -10 -1 -10 -1 -10 vhcurveto
          -119 -91 -105 42 102 vvcurveto
          endchar
        
                </CharString>
                <CharString name="nine.den">
                    -55 96 callsubr
          80 87 callsubr
          vstem
          104 -223 -67 callsubr
        
                </CharString>
                <CharString name="nine.inf">
                    5 53 -19 19 133 63 hstemhm
          92 87 callsubr
          hintmask 10111000
          116 -163 -33 callgsubr
        
                </CharString>
                <CharString name="nine.num">
                    580 53 -19 19 133 63 hstemhm
          192 87 callsubr
          hintmask 10111000
          216 412 -33 callgsubr
        
                </CharString>
                <CharString name="nine.small">
                    8 -21 168 96 callsubr
          115 87 callsubr
          vstem
          139 -13 -67 callsubr
        
                </CharString>
                <CharString name="nine.sup">
                    483 96 callsubr
          172 87 callsubr
          vstem
          196 315 -67 callsubr
        
                </CharString>
                <CharString name="notequal">
                    22 -21 144 88 callsubr
          461 145 rmoveto
          19 91 rlineto
          -184 hlineto
          72 129 rlineto
          136 hlineto
          18 91 rlineto
          -103 hlineto
          66 119 -78 25 -80 -144 rlineto
          -216 hlineto
          -19 -91 rlineto
          184 hlineto
          -72 -129 rlineto
          -136 hlineto
          -19 -91 rlineto
          104 hlineto
          -66 -119 78 -25 80 144 rlineto
          endchar
        
                </CharString>
                <CharString name="ntilde">
                    58 callsubr
          100 82 -44 -20 75 81 10 callsubr
          hintmask 1001101100000000
          433 663 rmoveto
          hintmask 1001011100000000
          -64 callsubr
          hintmask 1001101100000000
          -64 callgsubr
          hintmask 1001011100000000
          85 -622 -16 callgsubr
          hintmask 1010011010000000
          -27 callgsubr
          hintmask 0101011100000000
          -45 callgsubr
          hintmask 1010011010000000
          -40 callgsubr
          hintmask 1001011100000000
          17 callgsubr
        
                </CharString>
                <CharString name="numbersign">
                    3 -21 44 -21 500 -20 135 -20 34 -20 hstemhm
          28 513 hintmask 01101100
          218 244 rmoveto
          25 120 107 18 -25 -120 rlineto
          hintmask 10101100
          -161 -271 rmoveto
          34 159 107 19 rlineto
          hintmask 01101100
          -35 -164 75 9 36 168 95 16 19 93 -94 -16 26 121 95 16 19 93 -94 -16 33 155 -76 -10 -34 -158 -107 -18 rlineto
          hintmask 10110100
          35 162 -75 -10 -35 -165 -95 -16 -18 -94 92 16 -25 -120 -95 -16 -19 -94 93 16 -33 -155 rlineto
          endchar
        
                </CharString>
                <CharString name="numero">
                    0 164 -75 75 456 -20 26 -20 hstemhm
          352 244 hintmask 10011000
          514 626 rmoveto
          -92 -70 -147 -146 -90 30 -38 52 91 71 147 146 90 -31 38 -51 hvcurveto
          -334 -626 rmoveto
          72 hlineto
          hintmask 10101000
          121 620 rlineto
          -88 hlineto
          -59 -339 rlineto
          -2 hlineto
          -25 339 rlineto
          -77 hlineto
          68 callgsubr
          88 hlineto
          64 374 rlineto
          3 hlineto
          hintmask 01011000
          359 -285 rmoveto
          15 75 rlineto
          -212 hlineto
          -15 -75 rlineto
          endchar
        
                </CharString>
                <CharString name="o">
                    61 callsubr
          46 192 -105 callgsubr
        
                </CharString>
                <CharString name="oacute">
                    25 callsubr
          192 -20 -6 callgsubr
          207 620 -107 callgsubr
          -161 -428 -105 callgsubr
        
                </CharString>
                <CharString name="obreve">
                    25 callsubr
          66 84 -6 callgsubr
          503 762 -103 callgsubr
          -518 -533 -105 callgsubr
        
                </CharString>
                <CharString name="ocircumflex">
                    25 callsubr
          115 78 callsubr
          -2 callgsubr
          hintmask 11101100
          461 571 -66 callsubr
          hintmask 11011100
          14 callgsubr
          rlineto
          hintmask 11101100
          -26 callsubr
          -317 -485 -105 callgsubr
        
                </CharString>
                <CharString name="odieresis">
                    25 callsubr
          76.5 135 -6 callgsubr
          500 591 -102 callsubr
          -121 -396 -105 callgsubr
        
                </CharString>
                <CharString name="oe">
                    -10 84 -82 90 339 87 -84 84 hstemhm
          24 101 348 100 hintmask 01011100
          269 358 rmoveto
          hintmask 10011100
          -94 -46 -190 -60 -24 -14 25 47 95 52 183 57 vhcurveto
          hintmask 01011100
          23 12 -24 -42 hvcurveto
          hintmask 01101100
          176 63 rmoveto
          18 10 -14 -26 -51 -37 -63 -87 -19 hvcurveto
          88 16 37 85 43 hhcurveto
          81 -360 rmoveto
          -12 50 rlineto
          -131 -52 -42 20 83 vvcurveto
          8 0 9 1 8 vhcurveto
          157 23 74 89 99 vvcurveto
          hintmask 10011100
          71 -39 39 -56 -49 -46 -33 -50 -36 vhcurveto
          52 -16 -34 31 -49 hhcurveto
          -127 -97 -187 -168 -106 44 -57 70 49 46 33 50 37 hvcurveto
          hintmask 01101100
          26 -90 80 -31 150 109 rrcurveto
          endchar
        
                </CharString>
                <CharString name="ogonek">
                    -211 74 -31 31 159 -21 hstemhm
          124 97 hintmask 01110000
          371 43 rmoveto
          hintmask 10110000
          -179 -56 -68 -66 -58 63 callgsubr
          hintmask 01110000
          56 callgsubr
          endchar
        
                </CharString>
                <CharString name="ograve">
                    25 callsubr
          195 -20 -6 callgsubr
          485 613 -94 callsubr
          -415 -377 -105 callgsubr
        
                </CharString>
                <CharString name="ohungarumlaut">
                    61 callsubr
          224 576 -77 callgsubr
          -344 -419 -105 callgsubr
        
                </CharString>
                <CharString name="omacron">
                    25 callsubr
          102 89 -6 callgsubr
          537 703 -48 callsubr
          -474 -422 -105 callgsubr
        
                </CharString>
                <CharString name="one">
                    0 90 375.5 176.5 0 -20 hstemhm
          46 423 hintmask 10110000
          444 hmoveto
          25 91 rlineto
          -144 hlineto
          107 551 -105 -9 98 callgsubr
          -15 -75 -153 -17 -13 -77 149 3 -73 -377 rlineto
          -158 hlineto
          -18 -90 rlineto
          endchar
        
                </CharString>
                <CharString name="one.den">
                    -210 44 callgsubr
          44 321 vstem
          348 -210 rmoveto
          -53 callgsubr
        
                </CharString>
                <CharString name="one.inf">
                    -150 44 callgsubr
          56 321 vstem
          360 -150 rmoveto
          -53 callgsubr
        
                </CharString>
                <CharString name="one.num">
                    425 -16 callsubr
          156 321 hintmask 10110000
          45 callgsubr
          hintmask 01110000
          -67 callgsubr
          hintmask 10110000
          -48 callgsubr
          endchar
        
                </CharString>
                <CharString name="one.small">
                    0 44 callgsubr
          79 321 vstem
          383 hmoveto
          -53 callgsubr
        
                </CharString>
                <CharString name="one.sup">
                    328 44 callgsubr
          136 321 vstem
          440 328 rmoveto
          -53 callgsubr
        
                </CharString>
                <CharString name="oneeighth">
                    31 callgsubr
          86 70 -70 71 197.5 69 hstemhm
          53 26 callsubr
          hintmask 1011110101100000
          45 callgsubr
          hintmask 1011101101100000
          -67 callgsubr
          hintmask 1011110101100000
          -40 -200 rlineto
          -117 hlineto
          -14 -70 rlineto
          -99 -154 -83 callgsubr
          hintmask 1101110101100000
          8 callgsubr
          hintmask 1011110110100000
          -44 callsubr
          hintmask 1011110101100000
          26 callgsubr
          hintmask 1011110110100000
          -86 callgsubr
        
                </CharString>
                <CharString name="onefifth">
                    57 callgsubr
          86 -20 callsubr
          281 83 hintmask 11111011
          45 callgsubr
          hintmask 11110111
          -67 callgsubr
          hintmask 11111011
          -40 -200 rlineto
          -117 hlineto
          -14 -70 rlineto
          -99 -154 -73 callgsubr
        
                </CharString>
                <CharString name="onehalf">
                    -210 72 253 75 81 -20 callsubr
          290 92 hintmask 11110110
          45 callgsubr
          hintmask 11101110
          -67 callgsubr
          hintmask 11110110
          -35 callsubr
          268 -549 -95 callsubr
          endchar
        
                </CharString>
                <CharString name="onequarter">
                    -136 70 337 -20 callsubr
          50 457 hintmask 11101100
          45 callgsubr
          hintmask 11011100
          -67 callgsubr
          hintmask 11101100
          -35 callsubr
          300 -475 -96 callgsubr
        
                </CharString>
                <CharString name="onesixth">
                    87 callgsubr
          241 -20 callsubr
          62 68 callsubr
          hintmask 11110111
          45 callgsubr
          hintmask 11101111
          -67 callgsubr
          hintmask 11110111
          -35 callsubr
          137 -559 -101 callsubr
        
                </CharString>
                <CharString name="onethird">
                    -215 73 256 71 86 -20 callsubr
          275 85 hintmask 11110110
          45 callgsubr
          hintmask 11101110
          -67 callgsubr
          hintmask 11110110
          -40 -200 rlineto
          -117 hlineto
          -14 -70 rlineto
          -99 -41 callgsubr
        
                </CharString>
                <CharString name="ordfeminine">
                    109 71 65 66 -66 77 236 69 hstemhm
          110 89 133 89 hintmask 10111100
          247 322 rmoveto
          -26 -22 22 45 83 53 86 66 14 21 -4 -6 22 hvcurveto
          -11 -54 -16 -81 -7 -37 rrcurveto
          -30 -31 -38 -24 -25 hhcurveto
          hintmask 11011100
          239 -43 rmoveto
          -7 38 -59 -14 -4 8 8 41 rlinecurve
          51 259 rlineto
          11 -46 -43 5 -37 hhcurveto
          -145 -94 -130 -133 hvcurveto
          hintmask 10111100
          -78 39 -41 51 40 49 30 38 43 vhcurveto
          hintmask 11011100
          -4 -70 42 -23 116 59 rrcurveto
          -400 -99 rmoveto
          -13 -71 rlineto
          368 hlineto
          14 71 rlineto
          endchar
        
                </CharString>
                <CharString name="ordmasculine">
                    109 71 65 69 245 69 hstem
          126 89 191 88 vstem
          494 473 rmoveto
          96 -59 59 -92 -124 -93 -108 -120 -96 59 -59 93 124 92 107 121 vhcurveto
          -279 -64 rmoveto
          79 46 71 69 47 29 -35 -60 -79 -47 -71 -69 -47 -28 36 59 vhcurveto
          -124 -229 rmoveto
          -13 -71 rlineto
          337 hlineto
          14 71 rlineto
          endchar
        
                </CharString>
                <CharString name="oslash">
                    92 callgsubr
          hstemhm
          46 107 245 107 hintmask 10101100
          153 205 -32 callgsubr
          hintmask 10011100
          89 callgsubr
          hintmask 01101100
          15 callsubr
          hintmask 10101100
          71 callsubr
        
                </CharString>
                <CharString name="oslashacute">
                    92 callgsubr
          212 -20 hstemhm
          46 107 245 107 hintmask 10101110
          207 620 -107 callgsubr
          -54 -415 -32 callgsubr
          hintmask 10011110
          89 callgsubr
          hintmask 01101110
          15 callsubr
          hintmask 10101110
          71 callsubr
        
                </CharString>
                <CharString name="otilde">
                    25 callsubr
          70 82 -44 -20 75 81 hstemhm
          -2 callgsubr
          hintmask 11101110
          436 664 rmoveto
          hintmask 11011110
          -64 callsubr
          hintmask 11101110
          -64 callgsubr
          hintmask 11011110
          -390 -472 -105 callgsubr
        
                </CharString>
                <CharString name="p">
                    -155 -21 29 -21 156 89 -64 -21 418 100 -9 -20 hstemhm
          401 107 hintmask 01100110
          84 callsubr
          hintmask 01101010
          20 102 19 100 7 40 rrcurveto
          42 43 54 32 36 hhcurveto
          33 26 -29 -66 hvcurveto
          hintmask 01100110
          -113 -68 -125 -80 vhcurveto
          -141 -245 rmoveto
          hintmask 01010110
          4 22 13 63 14 75 rrcurveto
          hintmask 01101010
          46 callsubr
          -54 -68 -45 -55 -57 hvcurveto
          hintmask 10100110
          6 38 7 46 1 7 -104 -6 rcurveline
          -22 -156 -38 -189 -62 -326 rrcurveto
          endchar
        
                </CharString>
                <CharString name="paragraph">
                    86 90 447 -20 hstem
          68 100 vstem
          384 176 rmoveto
          -27 2 -25 3 -22 6 66 338 rcurveline
          23 1 25 -1 28 -3 rrcurveto
          -284 -180 rmoveto
          76 40 71 98 26 vhcurveto
          -59 -303 rlineto
          -52 29 -27 46 55 vvcurveto
          86 -448 rmoveto
          39 200 23 -4 24 -3 26 -1 rlinecurve
          -35 -179 91 10 138 706 rlineto
          -318 18 -174 -133 -186 vvcurveto
          -93 49 -72 94 -39 vhcurveto
          -46 -234 rlineto
          endchar
        
                </CharString>
                <CharString name="parenleft">
                    -206 925 hstem
          108 104 vstem
          474 719 -8 callgsubr
        
                </CharString>
                <CharString name="parenleft.cap">
                    697 -20 hstem
          118 104 vstem
          484 768 -8 callgsubr
        
                </CharString>
                <CharString name="parenright">
                    -210 925 hstem
          328 105 vstem
          67 -210 -8 callsubr
        
                </CharString>
                <CharString name="parenright.cap">
                    704 -20 hstem
          338 105 vstem
          77 -161 -8 callsubr
        
                </CharString>
                <CharString name="percent">
                    7 72 callgsubr
          640 69 callgsubr
          105 188 16 187 hintmask 01011000
          219 632 rmoveto
          -57 -57 -73 -89 -64 33 -36 41 56 58 73 89 63 -32 37 -42 hvcurveto
          hintmask 01101000
          338 -52 rmoveto
          -57 50 -457 -591 57 -49 rlineto
          hintmask 10011100
          283 -4 rmoveto
          57 56 78 87 63 -32 35 -42 -56 -57 -77 -88 -62 33 -36 41 hvcurveto
          endchar
        
                </CharString>
                <CharString name="period">
                    0 141 hstem
          158 165 vstem
          297 hmoveto
          26 48 callsubr
          endchar
        
                </CharString>
                <CharString name="periodcentered">
                    233 139 hstem
          193 177 vstem
          343 233 rmoveto
          27 139 rlineto
          -150 hlineto
          -27 -139 rlineto
          endchar
        
                </CharString>
                <CharString name="peso">
                    21 -21 356 87 -80 75 100 87 hstemhm
          38 541 hintmask 10111000
          423 438 rmoveto
          -200 hlineto
          20 100 111 12 60 -46 9 -66 rlinecurve
          -233 -169 rmoveto
          18 94 rlineto
          204 hlineto
          -27 -63 -77 -40 -118 9 rrcurveto
          hintmask 11011000
          372 87 rmoveto
          17 87 rlineto
          -58 hlineto
          -6 120 -108 90 -250 -36 -34 -174 rcurveline
          -68 hlineto
          -17 -87 rlineto
          69 hlineto
          -69 -356 rlineto
          99 hlineto
          33 170 175 21 121 66 40 99 rlinecurve
          endchar
        
                </CharString>
                <CharString name="plus">
                    252 91 hstem
          55 460 vstem
          496 252 rmoveto
          19 91 rlineto
          -173 66 callgsubr
          -97 hlineto
          -35 -179 rlineto
          -171 hlineto
          -19 -91 rlineto
          173 hlineto
          -35 -179 rlineto
          97 66 callgsubr
          endchar
        
                </CharString>
                <CharString name="plusminus">
                    49 90 157 90 hstem
          24 492 vstem
          450 49 rmoveto
          17 90 rlineto
          -164 hlineto
          31 157 rlineto
          164 hlineto
          18 90 rlineto
          -165 hlineto
          34 173 rlineto
          -98 hlineto
          -34 -173 rlineto
          -164 hlineto
          -18 -90 rlineto
          165 hlineto
          -31 -157 rlineto
          -163 hlineto
          -18 -90 rlineto
          endchar
        
                </CharString>
                <CharString name="published">
                    7 57 492 47 callsubr
          158 125 153 218 149 -87 86 33 callgsubr
          -63 -124 -175 -94 -130 -118 -84 -65 65 129 vhcurveto
          128 -105 rmoveto
          17 90 rlineto
          100 14 59 48 69 vvcurveto
          64 -48 43 -134 -21 vhcurveto
          -59 -307 rlineto
          endchar
        
                </CharString>
                <CharString name="q">
                    -181 95 74 100 334 89 hstem
          43 106 146 110 vstem
          510 -127 rmoveto
          -10 54 -96 -23 -5 5 9 49 rlinecurve
          103 524 rlineto
          16 -45 -60 13 -46 hhcurveto
          -196 -121 -175 -181 -112 52 -55 64 53 62 38 50 54 hvcurveto
          -28 -147 -22 -120 53 -28 179 92 rlinecurve
          -298 215 rmoveto
          -35 -28 30 65 114 65 125 84 23 33 -6 -10 36 hvcurveto
          -47 -249 rlineto
          -39 -44 -50 -30 -37 hhcurveto
          endchar
        
                </CharString>
                <CharString name="question">
                    0 129 hstem
          396 123 vstem
          135 572 rmoveto
          173 -20 88 -25 -65 vvcurveto
          -51 -54 -45 -156 -81 vhcurveto
          34 -57 rlineto
          215 106 84 83 84 vvcurveto
          97 -115 56 -245 25 vhcurveto
          83 -679 rmoveto
          26 129 rlineto
          -134 hlineto
          -26 -129 rlineto
          endchar
        
                </CharString>
                <CharString name="questiondown">
                    491 129 hstem
          55 122 vstem
          332 620 rmoveto
          -26 -129 rlineto
          133 hlineto
          27 129 rlineto
          -28 -572 rmoveto
          -173 20 -88 25 65 vvcurveto
          51 55 45 156 81 vhcurveto
          -34 57 rlineto
          -215 -106 -84 -83 -84 vvcurveto
          -97 115 -56 244 -25 vhcurveto
          endchar
        
                </CharString>
                <CharString name="quotedbl">
                    379 294 hstem
          140 388 vstem
          432 379 rmoveto
          91 253 5 41 rlineto
          -124 hlineto
          -49 -294 rlineto
          -138 hmoveto
          91 253 6 41 rlineto
          -125 hlineto
          -49 -294 rlineto
          endchar
        
                </CharString>
                <CharString name="quotedblbase">
                    97 callgsubr
          81 135 96 135 vstem
          234 -134 rmoveto
          42 -26 110 89 57 91 4 126 55 callgsubr
          -4 7 -113 -15 -77 -70 -86 rlinecurve
          -225 hmoveto
          42 -26 104 89 58 90 3 125 55 callgsubr
          -3 9 -113 -15 -76 -66 -86 rlinecurve
          endchar
        
                </CharString>
                <CharString name="quotedblleft">
                    384 305 hstem
          117 135 95 135 vstem
          555 664 rmoveto
          -43 25 -104 -89 -57 -90 -4 -125 rlinecurve
          135 4 -8 112 15 75 66 88 rlinecurve
          -226 hmoveto
          -42 86 callgsubr
          135 3 -8 113 15 76 70 88 rlinecurve
          endchar
        
                </CharString>
                <CharString name="quotedblright">
                    366 306 hstem
          176 135 95 135 vstem
          329 391 rmoveto
          42 -25 109 89 58 91 3 126 55 callgsubr
          -4 8 -113 -15 -77 -70 -87 rlinecurve
          -226 hmoveto
          42 -25 105 89 57 89 4 126 55 callgsubr
          -3 8 -113 -15 -76 -66 -87 rlinecurve
          endchar
        
                </CharString>
                <CharString name="quoteleft">
                    384 305 hstem
          224 138 vstem
          437 664 rmoveto
          -43 86 callgsubr
          138 3 -9 113 14 76 70 88 rlinecurve
          endchar
        
                </CharString>
                <CharString name="quoteright">
                    366 306 hstem
          289 138 vstem
          214 391 rmoveto
          43 -25 48 callgsubr
          -87 rlinecurve
          endchar
        
                </CharString>
                <CharString name="quotesinglbase">
                    97 callgsubr
          197 138 vstem
          122 -134 rmoveto
          43 -26 48 callgsubr
          -86 rlinecurve
          endchar
        
                </CharString>
                <CharString name="quotesingle">
                    379 294 hstem
          245 180 vstem
          324 379 rmoveto
          97 253 4 41 rlineto
          -130 hlineto
          -50 -294 rlineto
          endchar
        
                </CharString>
                <CharString name="r">
                    16 callsubr
          507 32 -80 callgsubr
        
                </CharString>
                <CharString name="racute">
                    16 callsubr
          253 625 -107 callgsubr
          254 -593 -80 callgsubr
        
                </CharString>
                <CharString name="rcaron">
                    16 callsubr
          362 573 -89 callgsubr
          152 -541 -80 callgsubr
        
                </CharString>
                <CharString name="rcommaaccent">
                    22 callsubr
          -143 132 10 111 hintmask 11001000
          507 32 -87 callsubr
          hintmask 11001000
          23 callgsubr
          hintmask 11011000
          -409 -287 -98 callsubr
        
                </CharString>
                <CharString name="registered">
                    187 53 164 147 75 53 hstem
          72 57 362 57 vstem
          325 679 rmoveto
          -148 -105 -110 -160 -136 87 -86 136 149 104 111 160 136 -86 85 -137 hvcurveto
          -2 -53 rmoveto
          101 67 -63 -112 -131 -82 -80 -111 -101 -68 64 112 130 82 80 112 hvcurveto
          18 -306 rmoveto
          63 7 -54 91 rlineto
          45 20 18 25 27 vvcurveto
          42 -44 31 -121 -16 vhcurveto
          -44 -224 rlineto
          60 hlineto
          15 80 15 2 rlineto
          endchar
        
                </CharString>
                <CharString name="registered.alt">
                    7 57 214 188 90 47 callsubr
          165 118 143 225 148 -87 90 33 callgsubr
          -68 -124 -182 -87 -118 -125 -84 -65 65 129 vhcurveto
          205 -102 rmoveto
          72 8 -57 128 rlineto
          46 25 33 36 37 vvcurveto
          52 -50 38 -131 -19 vhcurveto
          -59 -301 rlineto
          66 hlineto
          23 117 12 2 rlineto
          endchar
        
                </CharString>
                <CharString name="ring">
                    551 214 hstem
          186 268 vstem
          330 765 -57 callsubr
          endchar
        
                </CharString>
                <CharString name="ruble">
                    0 187 -77 77 72 81 200 85 hstemhm
          451 102 hintmask 01111000
          451 451 rmoveto
          -71 -63 -38 -144 -2 vhcurveto
          38 200 rlineto
          115 10 54 -35 -64 vvcurveto
          -56 -341 rmoveto
          22 77 rlineto
          -203 hlineto
          15 77 79 callgsubr
          17 96 80 107 vvcurveto
          111 -105 70 -255 -32 vhcurveto
          -54 -277 rlineto
          -74 hlineto
          -16 -81 rlineto
          -1 26 24 1 24 hhcurveto
          -13 -68 rlineto
          -76 hlineto
          -15 -81 rlineto
          75 hlineto
          hintmask 10111000
          -21 -110 rlineto
          105 hlineto
          hintmask 01111000
          21 110 rlineto
          endchar
        
                </CharString>
                <CharString name="rupee">
                    -9 88 -64 -21 27 -21 27 -21 618 -20 hstemhm
          378 160 -105 95 hintmask 01001010
          190 -6 rmoveto
          hintmask 00011010
          86 12 -42 268 rlineto
          68 62 45 84 84 vvcurveto
          90 -58 46 -149 -20 vhcurveto
          hintmask 00101010
          -120 -620 rlineto
          81 hlineto
          46 228 13 3 rlineto
          hintmask 10001010
          368 -85 rmoveto
          74 -34 69 -17 61 vhcurveto
          hintmask 10001100
          105 85 -11 77 -67 hhcurveto
          -61 -45 -69 -83 -18 2 -18 4 -17 hvcurveto
          -19 -21 -24 -23 -30 -27 rrcurveto
          hintmask 10001010
          24 -36 23 17 22 17 19 17 rlinecurve
          15 -49 19 -45 -39 vvcurveto
          -48 -16 -21 -114 14 vhcurveto
          -92 vlineto
          194 -9 31 87 77 vvcurveto
          endchar
        
                </CharString>
                <CharString name="rupeeindia">
                    4 -21 363 76 105 93 hstem
          50 502 vstem
          445 43 rmoveto
          -117 95 -62 46 -70 24 115 21 77 52 26 65 rrcurveto
          77 hlineto
          14 76 rlineto
          -85 hlineto
          -8 42 -27 39 -51 24 rrcurveto
          195 hlineto
          23 93 rlineto
          -406 hlineto
          -22 -91 129 -13 53 -43 13 -51 rlinecurve
          -213 hlineto
          -15 -76 rlineto
          219 hlineto
          -25 -49 -67 -40 -136 -8 -32 -80 rcurveline
          124 -35 44 -34 141 -117 rrcurveto
          endchar
        
                </CharString>
                <CharString name="s">
                    29 callsubr
          474 144 -76 callsubr
        
                </CharString>
                <CharString name="sacute">
                    29 callsubr
          218 642 -107 callgsubr
          256 -498 -76 callsubr
        
                </CharString>
                <CharString name="scaron">
                    29 callsubr
          348 590 -89 callgsubr
          133 -446 -76 callsubr
        
                </CharString>
                <CharString name="scedilla">
                    77 callsubr
          -67 -21 hstemhm
          211 189 -127 93 1 107 hintmask 00101000
          273 -187 rmoveto
          93 2 6 102 -32 61 -47 23 rlinecurve
          hintmask 00100100
          137 22 44 59 62 vvcurveto
          -1 callsubr
          hintmask 01000100
          -10 callgsubr
          hintmask 10001000
          -2 -97 25 -1 23 0 21 1 rlinecurve
          -34 -24 -31 -44 -28 -68 55 -18 rcurveline
          61 30 28 36 29 hhcurveto
          hintmask 00101000
          29 16 -34 -88 -5 hvcurveto
          endchar
        
                </CharString>
                <CharString name="schwa">
                    -13 88 179 60 104 92 hstem
          44 102 247 104 vstem
          190 -13 rmoveto
          173 134 174 159 165 -146 99 -282 -143 hvcurveto
          12 -56 231 60 78 -21 3 -110 rlinecurve
          -226 -17 -123 -70 -115 vvcurveto
          -77 56 -48 90 vhcurveto
          29 88 rmoveto
          -45 -28 24 36 70 92 38 150 11 hvcurveto
          -92 -18 -64 -87 -87 hhcurveto
          endchar
        
                </CharString>
                <CharString name="scommaaccent">
                    77 callsubr
          hstemhm
          146 132 -67 189 -33 107 hintmask 10101000
          474 144 rmoveto
          -1 callsubr
          hintmask 01101000
          -10 callgsubr
          hintmask 10101000
          22 callgsubr
          -366 -415 -98 callsubr
        
                </CharString>
                <CharString name="section">
                    -110 86 568 87 hstemhm
          59 101 -7 109 51 111 -28 102 hintmask 11101000
          160 254 rmoveto
          36 52 28 57 12 vhcurveto
          hintmask 11100100
          63 -35 64 -26 -37 vvcurveto
          -27 -35 -24 -83 -19 vhcurveto
          hintmask 11101000
          -61 30 -57 26 36 vvcurveto
          264 -231 rmoveto
          44 -34 32 -44 27 vhcurveto
          hintmask 11010100
          96 26 56 37 58 114 -236 34 86 vvcurveto
          34 32 29 47 47 27 -26 -64 12 vhcurveto
          93 19 rlineto
          103 -15 -44 55 -97 hhcurveto
          -123 -1 -88 -81 -81 vvcurveto
          -42 24 -31 33 -27 vhcurveto
          hintmask 11101000
          -84 -20 -67 -45 -67 -123 254 -28 -69 vvcurveto
          -39 -63 -23 -207 52 vhcurveto
          -24 -99 rlineto
          290 -56 115 87 85 vvcurveto
          endchar
        
                </CharString>
                <CharString name="semicolon">
                    321 141 hstem
          190 137 51 callgsubr
          -111 -457 rmoveto
          43 -24 112 93 56 89 5 120 rlinecurve
          -137 -2 5 -113 -15 -76 -69 -87 rlinecurve
          endchar
        
                </CharString>
                <CharString name="servicemark">
                    284 60 169 108 -50 59 -10 -20 21 -20 hstemhm
          87 68 22 70 hintmask 10100100
          395 345 rmoveto
          25 hlineto
          hintmask 11000100
          73 callgsubr
          hintmask 10010100
          72 callsubr
          hintmask 10001100
          -20 183 95 callsubr
          hintmask 11000100
          43 227 rlineto
          3 hlineto
          hintmask 10100100
          -98 27 rmoveto
          58 -9 -26 32 -50 hhcurveto
          -65 -44 -46 -56 hvcurveto
          -77 90 -34 -47 vvcurveto
          hintmask 10100110
          -29 -31 -9 -91 32 vhcurveto
          -13 -69 rlineto
          148 -35 57 55 59 vvcurveto
          hintmask 10100100
          72 -92 36 54 vvcurveto
          22 14 13 17 18 11 -15 -28 5 vhcurveto
          endchar
        
                </CharString>
                <CharString name="seven">
                    15 -21 32 -21 519 96 hstemhm
          89 472 hintmask 10110000
          197 -6 rmoveto
          95 180 116 185 134 173 19 88 rcurveline
          -412 hlineto
          -21 -96 rlineto
          298 -5 hlineto
          hintmask 01110000
          -133 -168 -111 -172 -93 -174 rrcurveto
          endchar
        
                </CharString>
                <CharString name="seven.den">
                    114 72 hstem
          82 336 vstem
          173 -215 -66 callgsubr
          endchar
        
                </CharString>
                <CharString name="seven.inf">
                    174 72 hstem
          94 336 vstem
          185 -155 -66 callgsubr
          endchar
        
                </CharString>
                <CharString name="seven.num">
                    749 72 hstem
          194 336 vstem
          285 420 -66 callgsubr
          endchar
        
                </CharString>
                <CharString name="seven.small">
                    16 -21 30 -21 320 72 hstemhm
          117 336 hintmask 10110000
          208 -5 -62 callgsubr
          rlineto
          hintmask 01110000
          -91 -102 -77 -107 -63 -107 rrcurveto
          endchar
        
                </CharString>
                <CharString name="seven.sup">
                    652 72 hstem
          174 336 vstem
          265 323 -66 callgsubr
          endchar
        
                </CharString>
                <CharString name="seveneighths">
                    31 callgsubr
          410 72 hstemhm
          53 26 callsubr
          hintmask 1011110110000000
          285 420 -66 callgsubr
          -137 -158 -83 callgsubr
          hintmask 1101110110000000
          8 callgsubr
          hintmask 1011111010000000
          -44 callsubr
          hintmask 1011110110000000
          26 callgsubr
          hintmask 1011111010000000
          -86 callgsubr
        
                </CharString>
                <CharString name="six">
                    -12 85 230 76 259 -20 hstem
          62 101 225 98 vstem
          253 -12 rmoveto
          128 105 92 136 159 -158 59 -148 -115 hvcurveto
          33 85 84 89 191 52 -24 93 rcurveline
          -293 -88 -109 -182 -168 vvcurveto
          -142 79 -70 112 vhcurveto
          20 85 rmoveto
          -58 -52 37 112 10 1 10 1 11 hvcurveto
          119 91 104 -42 -102 vvcurveto
          -70 -44 -57 -71 vhcurveto
          endchar
        
                </CharString>
                <CharString name="six.den">
                    87 callgsubr
          hstem
          62 68 callsubr
          vstem
          208 -220 -101 callsubr
        
                </CharString>
                <CharString name="six.inf">
                    -160 64 127 -21 27 53 hstemhm
          74 68 callsubr
          hintmask 10111000
          220 -160 -97 callgsubr
          hvcurveto
          hintmask 11011000
          6 0 6 1 6 vhcurveto
          hintmask 10111000
          -33 callsubr
        
                </CharString>
                <CharString name="six.num">
                    415 64 133 18 hstem
          174 68 callsubr
          vstem
          320 415 -101 callsubr
        
                </CharString>
                <CharString name="six.small">
                    -10 64 133 53 hstem
          97 68 callsubr
          vstem
          243 -10 -101 callsubr
        
                </CharString>
                <CharString name="six.sup">
                    318 64 133 53 hstem
          154 68 callsubr
          vstem
          300 318 -101 callsubr
        
                </CharString>
                <CharString name="slash">
                    -188 914 hstem
          -72 694 vstem
          533 726 rmoveto
          -605 -886 96 -28 598 878 rlineto
          endchar
        
                </CharString>
                <CharString name="space">
                    endchar
        
                </CharString>
                <CharString name="sterling">
                    -7 99 -84 -21 263 79 206 99 hstemhm
          140 101 -91 101 187 101 hintmask 10111010
          500 137 rmoveto
          -45 22 -53 -87 -47 11 -142 31 rlinecurve
          15 42 8 47 5 47 rrcurveto
          170 hlineto
          15 79 rlineto
          hintmask 10110110
          -175 hlineto
          6 50 8 46 18 36 rrcurveto
          42 21 34 32 40 hhcurveto
          36 24 -24 -81 hvcurveto
          101 6 rlineto
          128 2 -39 70 -100 hhcurveto
          -94 -78 -70 -75 -37 hvcurveto
          -25 -50 -10 -53 -8 -57 rrcurveto
          hintmask 01111010
          -71 hlineto
          -16 -79 rlineto
          77 hlineto
          -6 -38 -7 -41 -11 -43 rrcurveto
          5 -144 -29 -146 117 hhcurveto
          39 36 16 29 29 hvcurveto
          hintmask 10111010
          213 -60 60 -10 63 175 rrcurveto
          endchar
        
                </CharString>
                <CharString name="t">
                    64 callsubr
          hstem
          137 108 vstem
          464 52 -61 callsubr
          endchar
        
                </CharString>
                <CharString name="tcaron">
                    64 callsubr
          hstem
          137 108 200 118 vstem
          445 833 -30 callgsubr
          -99 -785 -61 callsubr
          endchar
        
                </CharString>
                <CharString name="tcommaaccent">
                    64 callsubr
          hstemhm
          137 108 -86 132 hintmask 11110000
          464 52 -61 callsubr
          hintmask 11101000
          -343 -326 -98 callsubr
        
                </CharString>
                <CharString name="thorn">
                    -155 -21 164 89 -64 -21 418 100 195 -20 hstemhm
          401 107 hintmask 11011100
          84 callsubr
          47 243 rlineto
          41 43 53 32 36 hhcurveto
          33 26 -29 -66 -113 -68 -125 -80 hvcurveto
          -141 -245 rmoveto
          hintmask 10111100
          31 160 rlineto
          hintmask 11011100
          46 callsubr
          -52 -65 -42 -52 -55 hvcurveto
          56 289 -106 -8 -169 -873 rlineto
          endchar
        
                </CharString>
                <CharString name="three">
                    -5 95 -69 -21 527 93 hstemhm
          372 102 hintmask 10110000
          474 177 rmoveto
          67 -54 62 -149 43 vhcurveto
          247 181 11 90 rlineto
          -367 hlineto
          -18 -93 rlineto
          258 hlineto
          -250 -182 -6 -48 rlineto
          162 -42 64 -46 -46 vvcurveto
          -48 -64 -46 -246 32 vhcurveto
          hintmask 01110000
          -13 -101 93 callgsubr
          314 -30 111 111 96 vvcurveto
          endchar
        
                </CharString>
                <CharString name="three.den">
                    -215 73 256 71 hstem
          275 85 vstem
          360 -94 -90 callgsubr
        
                </CharString>
                <CharString name="three.inf">
                    -155 73 256 71 hstem
          287 85 vstem
          372 -34 -90 callgsubr
        
                </CharString>
                <CharString name="three.num">
                    420 53 callgsubr
          387 85 hintmask 10110000
          -55 callsubr
          hintmask 01110000
          -14 callsubr
          hintmask 10110000
          -12 callgsubr
          endchar
        
                </CharString>
                <CharString name="three.small">
                    -5 73 -48 -21 325 71 hstemhm
          310 85 hintmask 10110000
          395 116 -88 callgsubr
          hintmask 01110000
          -10 -75 93 callgsubr
          -12 callgsubr
          endchar
        
                </CharString>
                <CharString name="three.sup">
                    323 73 116 -20 160 71 hstem
          367 85 vstem
          452 444 -90 callgsubr
        
                </CharString>
                <CharString name="threeeighths">
                    31 callgsubr
          81 73 6 -20 270 71 hstemhm
          53 26 callsubr
          31 85 hintmask 1011110101110000
          -55 callsubr
          hintmask 1011101101110000
          -14 callsubr
          hintmask 1011110101110000
          -12 callgsubr
          -415 -270 -83 callgsubr
          hintmask 1101110101110000
          8 callgsubr
          hintmask 1011110110110000
          -44 callsubr
          hintmask 1011110101110000
          26 callgsubr
          hintmask 1011110110110000
          -86 callgsubr
        
                </CharString>
                <CharString name="threefifths">
                    57 callgsubr
          86 91 callsubr
          281 83 23 85 hintmask 1111101110000000
          -55 callsubr
          hintmask 1111011110000000
          -14 callsubr
          hintmask 1111101110000000
          -12 callgsubr
          hintmask 1111101100000000
          -415 -270 -73 callgsubr
        
                </CharString>
                <CharString name="threequarters">
                    -136 70 337 91 callsubr
          387 85 hintmask 11101100
          -55 callsubr
          hintmask 11011100
          -14 callsubr
          hintmask 11101100
          -12 callgsubr
          -415 -270 -71 callsubr
          300 -475 -96 callgsubr
        
                </CharString>
                <CharString name="tilde">
                    568 82 11 81 -36 -20 hstemhm
          71 429 hintmask 10110000
          364 650 rmoveto
          hintmask 11010000
          -64 callsubr
          hintmask 10110000
          -64 callgsubr
          endchar
        
                </CharString>
                <CharString name="trademark">
                    563 57 -57 58 hstemhm
          85 505 hintmask 10100000
          301 620 rmoveto
          -204 hlineto
          -12 -57 rlineto
          74 hlineto
          -53 -276 rlineto
          63 hlineto
          54 276 rlineto
          67 hlineto
          hintmask 01100000
          116 58 rmoveto
          95 callsubr
          43 227 rlineto
          3 hlineto
          16 -168 rlineto
          25 hlineto
          73 callgsubr
          hintmask 10100000
          72 callsubr
          endchar
        
                </CharString>
                <CharString name="two">
                    0 93 432 102 hstem
          393 109 vstem
          440 hmoveto
          18 93 rlineto
          -271 hlineto
          201 136 114 100 131 vvcurveto
          132 -122 61 -230 -37 vhcurveto
          -15 -100 rlineto
          194 29 64 -40 -73 vvcurveto
          -103 -129 -96 -225 -150 vhcurveto
          -83 vlineto
          endchar
        
                </CharString>
                <CharString name="two.den">
                    -210 44 callsubr
          290 92 vstem
          339 -210 -95 callsubr
          endchar
        
                </CharString>
                <CharString name="two.inf">
                    -150 44 callsubr
          302 92 vstem
          351 -150 -95 callsubr
          endchar
        
                </CharString>
                <CharString name="two.num">
                    425 44 callsubr
          402 -11 callsubr
          endchar
        
                </CharString>
                <CharString name="two.small">
                    0 44 callsubr
          325 92 vstem
          374 hmoveto
          -98 callgsubr
          endchar
        
                </CharString>
                <CharString name="two.sup">
                    328 44 callsubr
          382 92 vstem
          431 328 -95 callsubr
          endchar
        
                </CharString>
                <CharString name="twofifths">
                    57 callgsubr
          86 68 86 44 callsubr
          281 83 38 -11 callsubr
          -101 -154 -73 callgsubr
        
                </CharString>
                <CharString name="twothirds">
                    -215 73 256 71 86 68 86 44 callsubr
          275 85 42 -11 callsubr
          -101 -41 callgsubr
        
                </CharString>
                <CharString name="u">
                    5 callsubr
          522 41 -78 callgsubr
        
                </CharString>
                <CharString name="uacute">
                    5 callsubr
          220 611 -107 callgsubr
          302 -570 -78 callgsubr
        
                </CharString>
                <CharString name="ubreve">
                    -26 callgsubr
          86 84 13 callsubr
          516 753 -103 callgsubr
          -55 -675 -100 callsubr
        
                </CharString>
                <CharString name="ucircumflex">
                    -26 callgsubr
          135 -20 23 -20 -1 callgsubr
          hintmask 01011011
          474 562 -66 callsubr
          hintmask 01010111
          14 callgsubr
          rlineto
          hintmask 01101011
          -26 callsubr
          146 -627 -36 callgsubr
          2 callgsubr
          hintmask 10010111
          -74 callsubr
          -88 callsubr
          hintmask 01101011
          -28 callgsubr
        
                </CharString>
                <CharString name="udieresis">
                    -26 callgsubr
          96.5 135 13 callsubr
          513 582 -102 callsubr
          342 -538 -100 callsubr
        
                </CharString>
                <CharString name="ugrave">
                    -26 callgsubr
          215 -20 13 callsubr
          498 604 -94 callsubr
          48 -519 -100 callsubr
        
                </CharString>
                <CharString name="uhungarumlaut">
                    5 callsubr
          237 567 -77 callgsubr
          119 -561 -78 callgsubr
        
                </CharString>
                <CharString name="umacron">
                    -26 callgsubr
          122 89 13 callsubr
          550 694 -48 callsubr
          -11 -564 -100 callsubr
        
                </CharString>
                <CharString name="underscore">
                    -133 82 hstem
          -37 508 vstem
          471 -51 rmoveto
          -493 hlineto
          -15 -82 rlineto
          492 hlineto
          endchar
        
                </CharString>
                <CharString name="underscore.alt">
                    -133 82 hstem
          -75 586 vstem
          511 -51 rmoveto
          -570 hlineto
          -16 -82 rlineto
          570 hlineto
          endchar
        
                </CharString>
                <CharString name="uni00A0">
                    endchar
        
                </CharString>
                <CharString name="uogonek">
                    54 callsubr
          125 102 -81 -21 43 -21 32 40 417 -20 25 -20 hstemhm
          65 110 58 98 0 106 hintmask 1000110111000000
          479 -168 rmoveto
          hintmask 0100110111000000
          35 callgsubr
          35 35 46 156 66 vhcurveto
          hintmask 0100111010100000
          -34 callgsubr
          2 callgsubr
          hintmask 0110000110100000
          -74 callsubr
          -83 callsubr
          51 59 35 68 62 hvcurveto
          hintmask 0101010110100000
          -4 -42 10 -28 24 -11 rrcurveto
          hintmask 1000110111000000
          -91 -48 -37 -51 -46 vvcurveto
          -68 65 callsubr
          endchar
        
                </CharString>
                <CharString name="uring">
                    -26 callgsubr
          73 214 13 callsubr
          380 770 -57 callsubr
          142 -729 -100 callsubr
        
                </CharString>
                <CharString name="v">
                    -4 113 389 99 callgsubr
          85 479 hintmask 10110000
          254 109 rmoveto
          -8 hlineto
          -21 131 -19 133 -14 129 -107 -8 rcurveline
          19 -164 27 -169 30 -165 rrcurveto
          131 hlineto
          hintmask 11010000
          93 161 97 180 82 161 rrcurveto
          -110 hlineto
          hintmask 10110000
          -64 -128 -65 -131 -71 -130 rrcurveto
          endchar
        
                </CharString>
                <CharString name="w">
                    0 callsubr
          309 hmoveto
          -91 callgsubr
        
                </CharString>
                <CharString name="wacute">
                    0 callsubr
          214 605 -107 callgsubr
          95 -605 rmoveto
          -91 callgsubr
        
                </CharString>
                <CharString name="wcircumflex">
                    0 callsubr
          467 556 -81 callsubr
          -60 -662 rmoveto
          -91 callgsubr
        
                </CharString>
                <CharString name="wdieresis">
                    24 callsubr
          96.5 135 hstemhm
          54 509 hintmask 01111000
          506 576 -102 callsubr
          136 -573 rmoveto
          -22 callsubr
          hintmask 10111000
          -90 callsubr
        
                </CharString>
                <CharString name="wgrave">
                    0 callsubr
          492 598 -94 callsubr
          -159 -554 rmoveto
          -91 callgsubr
        
                </CharString>
                <CharString name="x">
                    19 -21 23 -21 24 -21 495 69 callgsubr
          -12 573 hintmask 10001100
          346 -2 rmoveto
          hintmask 00110100
          119 5 -122 246 218 249 rlineto
          -114 hlineto
          -155 -188 rlineto
          hintmask 01001100
          -90 190 -118 -5 122 -246 -218 -249 rlineto
          114 hlineto
          155 188 rlineto
          endchar
        
                </CharString>
                <CharString name="y">
                    6 callsubr
          hstemhm
          61 109 183 92 hintmask 11011100
          429 -68 -75 callsubr
          hintmask 11101100
          -80 callsubr
          hintmask 11011100
          5 callgsubr
        
                </CharString>
                <CharString name="yacute">
                    6 callsubr
          212 62 callsubr
          hintmask 11011110
          214 616 -107 callgsubr
          215 -684 -84 callgsubr
        
                </CharString>
                <CharString name="ycircumflex">
                    6 callsubr
          135 -20 23 62 callsubr
          hintmask 11011011
          467 567 -66 callsubr
          hintmask 11010111
          14 callgsubr
          rlineto
          hintmask 11011011
          -26 callsubr
          60 -741 -75 callsubr
          hintmask 11100111
          -80 callsubr
          hintmask 11011011
          5 callgsubr
        
                </CharString>
                <CharString name="ydieresis">
                    6 callsubr
          96.5 135 38 callsubr
          hintmask 11011110
          507 587 -102 callsubr
          255 -652 -84 callgsubr
        
                </CharString>
                <CharString name="yen">
                    0 201 -79 79 76 78 265 69 callgsubr
          33 563 hintmask 01101100
          467 122 rmoveto
          16 79 rlineto
          -166 hlineto
          4 20 39 56 rlineto
          138 hlineto
          15 78 rlineto
          -100 hlineto
          hintmask 01110100
          183 265 78 callgsubr
          -190 -300 rlineto
          hintmask 01101100
          -87 302 -108 -4 82 -263 rlineto
          -103 hlineto
          -15 -78 rlineto
          142 hlineto
          16 -49 -6 -27 rlineto
          -167 hlineto
          -15 -79 rlineto
          166 hlineto
          hintmask 10101100
          -24 -122 rlineto
          105 hlineto
          hintmask 01101100
          23 122 rlineto
          endchar
        
                </CharString>
                <CharString name="ygrave">
                    6 callsubr
          215 62 callsubr
          hintmask 11011110
          492 609 -94 callsubr
          -39 -633 -84 callgsubr
        
                </CharString>
                <CharString name="z">
                    4 callsubr
          hstem
          28 498 vstem
          430 hmoveto
          -47 callsubr
        
                </CharString>
                <CharString name="zacute">
                    4 callsubr
          hstem
          28 498 vstem
          210 606 -107 callgsubr
          220 -606 rmoveto
          -47 callsubr
        
                </CharString>
                <CharString name="zcaron">
                    4 callsubr
          203 69 callgsubr
          28 525 hintmask 11011000
          340 554 rmoveto
          hintmask 11101000
          213 147 rlineto
          hintmask 11011000
          -81 callgsubr
          97 -554 rmoveto
          -47 callsubr
        
                </CharString>
                <CharString name="zdotaccent">
                    4 callsubr
          1 callsubr
          28 498 vstem
          394 576 -49 callgsubr
          152 -575 rmoveto
          -47 callsubr
        
                </CharString>
                <CharString name="zero">
                    -12 88 468 88 hstem
          53 106 256 106 vstem
          53 219 rmoveto
          -153 84 callgsubr
          219 152 90 callgsubr
          -219 vhcurveto
          270 325 rmoveto
          52 33 -41 -81 7 hvcurveto
          -253 -132 rlineto
          131 15 64 123 82 hhcurveto
          -72 -468 rmoveto
          -53 -33 41 86 -6 hvcurveto
          254 131 rlineto
          -132 -15 -63 -126 -84 hhcurveto
          endchar
        
                </CharString>
                <CharString name="zero.alt">
                    -12 91 462 91 hstem
          53 104 260 104 vstem
          53 222 rmoveto
          -156 84 callgsubr
          216 155 90 callgsubr
          -216 vhcurveto
          104 7 rmoveto
          150 71 162 97 56 36 -48 -102 -151 -70 -161 -98 -56 -36 47 103 vhcurveto
          endchar
        
                </CharString>
                <CharString name="zero.den">
                    -220 66 callsubr
          55 67 callsubr
          55 -61 -85 callsubr
        
                </CharString>
                <CharString name="zero.inf">
                    -160 66 callsubr
          67 67 callsubr
          67 -1 -85 callsubr
        
                </CharString>
                <CharString name="zero.num">
                    415 66 callsubr
          167 67 callsubr
          167 574 -85 callsubr
        
                </CharString>
                <CharString name="zero.small">
                    -10 66 callsubr
          90 67 callsubr
          90 149 -85 callsubr
        
                </CharString>
                <CharString name="zero.sup">
                    318 66 callsubr
          147 67 callsubr
          147 477 -85 callsubr
        
                </CharString>
                <CharString name="ampersand_ampersand.liga">
                    107 385.31746 184.40079 rmoveto
4.36612 -7.70291 4.56085 -7.80026 4.75555 -7.89761 -49.33333 -50 -44 -25 -38.66667 0 -34.66667 0 -17.33333 19.66667 0 39.33333 0 52 36 61.33333 72 70.66667 11.63492 -43.63095 20.77249 -48.19974 29.91005 -52.76852 rrcurveto
358.73317 -8.25699 rmoveto
2.9023 -5.00752 2.98312 -5.04793 3.06395 -5.08835 -49.33333 -50 -44 -25 -38.66667 0 -34.66667 0 -17.33333 19.66667 0 39.33333 0 52 36 61.33333 72 70.66667 12.23906 -45.8965 22.35022 -50.95206 32.46135 -56.00764 rrcurveto
143.94937 -196.1438 rmoveto
89 65 rlineto
-42 46 -35.66667 44 -29.33333 42 38 46.66667 39.33333 58 40.66667 69.33333 rrcurveto
-88 31 rlineto
-24.66667 -48.66667 -25.66666 -44 -26.66667 -39.33333 -28.66667 52 -19.33333 51.33333 -10 50.66667 31.33333 29.33333 24.33334 30 17.33333 30.66667 17.33333 30.66667 8.66667 26.33333 0 22 0 22 -6.83333 16.66667 -13.66667 11.33333 -13.66667 11.33333 -17.83333 5.66667 -22 0 rrcurveto
-32.66667 0 -30.16666 -18.16667 -27.66667 -36.33333 -27.66667 -36.33333 -13.83333 -45.5 0 -54.66667 0 -12 0.33333 -9.33333 0.66667 -6.66667 -85.33333 -68.66667 -57.29137 -67.4156 -29.24939 -66.16457 -42.08394 74.16457 -25.3753 61.74895 -8.66667 49.33333 31.33333 29.33333 24.33334 30 17.33333 30.66667 rrcurveto
17.33333 30.66667 8.66667 26.33333 0 22 0 22 -6.83333 16.66667 -13.66667 11.33333 -13.66667 11.33333 -17.83333 5.66667 -22 0 -32.66667 0 -30.16666 -18.16667 -27.66667 -36.33333 -27.66667 -36.33333 -13.83333 -45.5 0 -54.66667 0 -12 0.33333 -9.33333 0.66667 -6.66667 rrcurveto
-129.33333 -104 -64.66667 -100.66667 0 -97.33333 0 -39.33333 10.66667 -31.16667 21.33333 -23 21.33333 -23 30.33334 -11.5 39.33333 0 65.33333 0 69.33334 34.66667 73.33333 69.33333 rrcurveto
33 -47 rlineto
30.66667 -38.66667 37.33333 -19.33333 44 0 64.6701 0 69.66667 35 74.66322 70 28 -39.33333 30.66667 -38.33334 33.33333 -37.33333 rrcurveto
endchar
    
                </CharString>
                <CharString name="bar_bar.liga">
                    107 442.49721 378 rmoveto
65.50279 335 -102 -3 -174 -892 101 0 rlineto
433 892 rmoveto
-64.76233 -332 -109.23767 -560 101 0 175 895 rlineto
endchar
    
                </CharString>
</ttFont>
